<svg width="500" height="500" viewBox="0 0 500 500" fill="none" xmlns="http://www.w3.org/2000/svg">
<g clip-path="url(#clip0_427_162)">
<path d="M439.583 499.583L411.854 499.612L374.838 499.654L344.271 499.688L314.763 499.721H312.263H310.596L292.458 499.742L268.708 499.767L243.292 499.796L216.008 499.825L198.221 499.846H194.125L60.4167 500L60.6875 499.317C62.9167 493.75 79.125 455.333 104.721 438.217C124.1 425.258 154.204 410.45 170.454 402.754C175.55 400.346 179.288 398.629 180.896 397.9L181.763 397.513L212.004 397.292H212.204H213.358H214.492L222.233 397.238L285.983 396.779L293.454 396.725H294.346H295.079L302.246 396.679L326.521 396.504L327.113 396.713C329.071 397.404 335.704 399.746 344.675 403.108C353.254 406.313 363.967 410.442 374.788 414.917C386.104 419.6 397.525 424.662 406.742 429.458C416.813 434.704 424.242 439.625 425.988 443.375C432.442 457.279 438.904 495.821 439.483 499.363C439.583 499.492 439.583 499.583 439.583 499.583Z" fill="#F2F2F2" stroke="black" stroke-width="5" stroke-miterlimit="10"/>
<path d="M292.458 499.746L268.717 499.771L255.625 485.208L243.283 499.8L216 499.829L244.792 451.042H267.708L292.458 499.746Z" fill="#44C6AC" stroke="black" stroke-width="5" stroke-miterlimit="10" stroke-linecap="round"/>
<path d="M222.254 395.667C196.887 395.417 179.167 426.142 255.742 426.667C332.317 427.192 318.762 393.333 285.95 393.333" fill="#F2F2F2"/>
<path d="M222.254 395.667C196.887 395.417 179.167 426.142 255.742 426.667C332.317 427.192 318.762 393.333 285.95 393.333" stroke="black" stroke-width="5" stroke-miterlimit="10"/>
<path d="M286.021 413.617V395.383V358.55H222.254V414.113" fill="#F2F2F2"/>
<path d="M286.021 413.617V395.383V358.55H222.254V414.113" stroke="black" stroke-width="5" stroke-miterlimit="10"/>
<path d="M221.888 381.338L221.367 393.333C221.367 393.333 221.092 393.458 220.621 393.696C220.371 393.821 220.058 393.983 219.7 394.179L219.65 394.2C219.442 394.313 219.233 394.429 218.975 394.563C218.171 395.004 217.213 395.563 216.154 396.229C215.626 396.554 215.083 396.903 214.525 397.275C210.821 399.742 206.521 403.225 204.158 407.304C204.146 407.33 204.132 407.355 204.117 407.379C203.69 408.112 203.333 408.884 203.05 409.683C203.008 409.788 202.971 409.892 202.933 409.992C202.479 411.315 202.294 412.716 202.388 414.113V414.113C202.388 414.167 202.388 414.221 202.388 414.279C202.385 414.29 202.385 414.302 202.388 414.312C202.435 414.876 202.535 415.434 202.688 415.979C202.688 415.979 202.688 416.004 202.688 416.021C202.795 416.458 202.934 416.887 203.104 417.304C206.975 426.754 214.042 456.208 218.208 474.075C219.783 480.833 209.354 478.763 209.354 478.763L198.463 499.333L198.179 499.867H194.125C194.088 499.692 194.046 499.517 194.008 499.333C190.163 481.583 179.167 429.625 179.167 414.167C179.167 402.679 180.142 399.008 180.9 397.917C181.375 397.217 181.767 397.529 181.767 397.529L221.888 381.338Z" fill="#F2F2F2" stroke="black" stroke-width="5" stroke-miterlimit="10"/>
<path d="M218.242 474.058C218.242 474.058 216.992 474.375 215.225 472.808C214.146 471.854 212.887 470.188 211.625 467.3C211.4 466.788 211.179 466.242 210.958 465.633C210.783 465.167 210.604 464.667 210.429 464.142C209.929 462.646 209.283 462.329 208.542 462.892C204.958 465.629 199.121 489.004 196.575 499.825" stroke="black" stroke-width="5" stroke-miterlimit="10"/>
<path d="M207.825 462.6C207.825 462.6 191.667 403.225 198.971 401.667C206.275 400.108 221.888 393.333 221.888 393.333" stroke="black" stroke-width="5" stroke-miterlimit="10"/>
<path d="M329.7 414.167C329.7 429.629 318.712 481.588 314.867 499.321C314.833 499.458 314.808 499.592 314.775 499.738H312.275H310.608L310.392 499.321L299.492 478.75C299.492 478.75 289.075 480.833 290.637 474.063C290.854 473.125 291.083 472.15 291.317 471.146C291.371 470.925 291.421 470.7 291.475 470.471C291.473 470.46 291.473 470.449 291.475 470.438C295.612 452.821 301.846 427.213 305.504 417.863C305.558 417.713 305.617 417.571 305.675 417.446" stroke="black" stroke-width="5" stroke-miterlimit="10"/>
<path d="M290.638 474.058C290.638 474.058 291.975 474.392 293.796 472.687C295.018 471.459 296.006 470.019 296.713 468.438V468.438C297.294 467.247 297.799 466.021 298.225 464.767C298.292 464.575 298.358 464.375 298.429 464.179C298.908 462.742 299.521 462.392 300.229 462.875C303.792 465.304 309.667 488.775 312.254 499.733" stroke="black" stroke-width="5" stroke-miterlimit="10"/>
<path d="M286.992 393.333C286.992 393.333 302.617 400.104 309.908 401.667C317.2 403.229 301.054 462.604 301.054 462.604C301.054 462.604 298.138 462.796 296.733 468.438C295.329 474.079 290.246 474.117 291.483 470.446C292.721 466.775 307.175 415.521 306.458 412.242C305.742 408.963 301.575 398.017 286.992 393.333Z" fill="black"/>
<path d="M221.692 393.333C221.692 393.333 206.067 400.104 198.775 401.667C191.483 403.229 207.629 462.604 207.629 462.604C207.629 462.604 210.546 462.796 211.946 468.438C213.346 474.079 218.433 474.117 217.2 470.446C215.967 466.775 201.508 415.521 202.225 412.242C202.942 408.963 207.108 398.017 221.692 393.333Z" fill="black"/>
<path d="M344.283 402.704C358.346 412.538 344.283 499.688 344.283 499.688" stroke="black" stroke-width="2" stroke-miterlimit="10"/>
<path d="M374.846 414.867C383.346 421.975 374.846 499.65 374.846 499.65" stroke="black" stroke-width="2" stroke-miterlimit="10"/>
<path d="M406.808 429.408C417.2 435.517 411.862 499.608 411.862 499.608" stroke="black" stroke-width="2" stroke-miterlimit="10"/>
<path d="M170.525 402.704C156.463 412.538 170.525 499.688 170.525 499.688" stroke="black" stroke-width="2" stroke-miterlimit="10"/>
<path d="M139.958 418.067C131.463 425.175 139.958 499.65 139.958 499.65" stroke="black" stroke-width="2" stroke-miterlimit="10"/>
<path d="M107.996 436.296C97.6083 442.404 102.942 499.629 102.942 499.629" stroke="black" stroke-width="2" stroke-miterlimit="10"/>
<path d="M173.971 278.225C173.971 332.3 209.692 373.225 251.833 373.225C293.975 373.225 328.138 329.387 328.138 275.308C328.138 221.229 293.971 177.392 251.833 177.392C209.696 177.392 173.971 224.167 173.971 278.225Z" fill="#F2F2F2" stroke="black" stroke-width="5" stroke-miterlimit="10"/>
<path d="M287.042 272.104C290.638 272.104 293.554 269.188 293.554 265.592C293.554 261.995 290.638 259.079 287.042 259.079C283.445 259.079 280.529 261.995 280.529 265.592C280.529 269.188 283.445 272.104 287.042 272.104Z" fill="black"/>
<path d="M251.7 279.917C248.523 279.917 245.476 281.179 243.23 283.425C240.983 285.672 239.721 288.719 239.721 291.896C239.721 295.073 240.983 298.12 243.23 300.366C245.476 302.613 248.523 303.875 251.7 303.875" stroke="black" stroke-width="5" stroke-linecap="round" stroke-linejoin="round"/>
<path d="M306.733 246.363C300.65 233.063 289.996 227.704 274.442 233.342" stroke="black" stroke-width="8.23" stroke-linecap="round" stroke-linejoin="round"/>
<path d="M196.838 246.363C202.921 233.063 213.571 227.704 229.129 233.342" stroke="black" stroke-width="8.23" stroke-linecap="round" stroke-linejoin="round"/>
<path d="M276.021 344.425C271.658 346.717 265.504 348.458 256.992 349.225C247.825 350.058 240.863 349.225 235.742 347.429C218.142 341.279 221.742 323.758 229.4 322.142C239.204 320.079 243.983 329.954 253.879 327.871C263.775 325.787 273.15 317.454 278.879 318.496C283.4 319.321 292.5 335.767 276.021 344.425Z" fill="black" stroke="black" stroke-width="5" stroke-linecap="round" stroke-linejoin="round"/>
<path d="M276.021 344.425C271.658 346.717 265.504 348.458 256.992 349.225C247.825 350.058 240.863 349.225 235.742 347.429C239.492 341.017 247.408 336.675 254.4 336.204C260.958 335.767 271.567 339.742 276.021 344.425Z" fill="#F2F2F2" stroke="black" stroke-width="5" stroke-linecap="round" stroke-linejoin="round"/>
<path d="M175.533 295.933C172.567 268.15 185.117 234.213 208.346 219.371C220.846 211.379 227.563 214.621 242.721 203.225C261.321 189.233 273.45 180.833 273.45 180.833C273.45 180.833 284.779 233.192 323.45 256.875C332.546 262.446 342.288 258.829 345.325 265.208C348.938 272.796 339.729 282.325 324.492 305.313C306.158 332.942 297.092 346.938 301.054 355.833C306.471 368.004 332.354 373.292 343.763 363.646C353.038 355.8 348.871 341.342 347.929 317.292C347.379 303.279 348.275 292.05 349.821 282.592C356.071 244.346 360.05 236.004 359.908 219.375C359.604 184.792 324.492 160 310.429 155.313C303.138 119.896 238.379 102.167 206.263 121.458C186.058 133.592 191.517 152.554 155.742 191.25C137.904 210.542 130.896 224.413 124.492 237.083C101.054 283.438 114.704 334.1 152.617 355.833C170.888 366.308 188.842 364.738 195.325 353.75C202.413 341.725 178.988 328.333 175.533 295.933Z" fill="#44C6AC" stroke="black" stroke-width="5" stroke-miterlimit="10" stroke-linecap="round"/>
<path d="M326.575 298.537H335.688C338.345 298.576 340.984 298.085 343.45 297.095C345.917 296.104 348.162 294.633 350.054 292.768C351.947 290.902 353.451 288.678 354.476 286.227C355.502 283.775 356.031 281.143 356.031 278.485C356.031 275.828 355.502 273.196 354.476 270.744C353.451 268.292 351.947 266.069 350.054 264.203C348.162 262.337 345.917 260.866 343.45 259.876C340.984 258.885 338.345 258.395 335.688 258.433H326.575C326.575 258.433 328.633 285.246 326.575 298.537Z" fill="#F2F2F2" stroke="black" stroke-width="5" stroke-miterlimit="10"/>
<path d="M305.963 279.729L316.454 283.487" stroke="black" stroke-width="5" stroke-miterlimit="10" stroke-linecap="round"/>
<path d="M312.213 273.479L322.704 277.237" stroke="black" stroke-width="5" stroke-miterlimit="10" stroke-linecap="round"/>
<path d="M196.663 279.729L186.171 283.487" stroke="black" stroke-width="5" stroke-miterlimit="10" stroke-linecap="round"/>
<path d="M190.413 273.479L179.921 277.237" stroke="black" stroke-width="5" stroke-miterlimit="10" stroke-linecap="round"/>
<path d="M314.617 158.046C312.433 156.496 309.55 156.296 306.896 156.683" stroke="black" stroke-width="5" stroke-miterlimit="10"/>
<path d="M199.733 140.112C197.325 164.012 184.892 186.742 166.071 201.667" stroke="black" stroke-width="5" stroke-miterlimit="10" stroke-linecap="round"/>
<path d="M205.338 132.992C217.838 123.221 235.05 119.037 252.167 127.537C269.283 136.037 270.554 149.542 280.025 160.079" stroke="black" stroke-width="5" stroke-miterlimit="10" stroke-linecap="round"/>
<path d="M272.296 131.812C277.608 132.179 281.846 136.308 285.088 140.533C288.329 144.758 291.279 149.492 295.921 152.088" stroke="black" stroke-width="5" stroke-miterlimit="10" stroke-linecap="round"/>
<path d="M308.842 170.733C322.126 175.601 333.128 185.231 339.712 197.753C346.297 210.275 347.994 224.797 344.475 238.5" stroke="black" stroke-width="5" stroke-miterlimit="10" stroke-linecap="round"/>
<path d="M321.929 197.613C335.613 205.913 320.196 221.65 332.992 229.463" stroke="black" stroke-width="5" stroke-miterlimit="10" stroke-linecap="round"/>
<path d="M149.167 217.346C142.625 233.471 128.621 246.337 125.063 263.375C123.065 273.134 124.722 283.287 129.721 291.904" stroke="black" stroke-width="5" stroke-miterlimit="10" stroke-linecap="round"/>
<path d="M131.621 271.342C143.004 295.125 123.071 307.796 143.633 329.417" stroke="black" stroke-width="5" stroke-miterlimit="10" stroke-linecap="round"/>
<path d="M247.083 186.825C241.423 192.867 234.561 197.657 226.937 200.886C219.314 204.115 211.099 205.713 202.821 205.575" stroke="black" stroke-width="5" stroke-miterlimit="10" stroke-linecap="round"/>
<path d="M210.942 195.867C205.952 196.343 201.06 197.549 196.421 199.446C193.669 200.511 191.085 201.967 188.75 203.771C178.158 212.288 177.371 228.771 167.562 238.171" stroke="black" stroke-width="5" stroke-miterlimit="10" stroke-linecap="round"/>
<path d="M260.963 177.604L275.546 171.325C275.998 174.712 277.172 177.962 278.989 180.856C280.805 183.75 283.222 186.22 286.075 188.1" stroke="black" stroke-width="5" stroke-miterlimit="10" stroke-linecap="round"/>
<path d="M317.033 329.762C314.117 332.587 311.2 335.463 309.154 338.958C307.108 342.454 306.046 346.725 307.179 350.625C308.846 356.35 314.704 359.792 320.392 361.588" stroke="black" stroke-width="5" stroke-miterlimit="10" stroke-linecap="round"/>
<path d="M330.504 337.533C331.336 341.46 331.089 345.539 329.792 349.337C329.405 350.632 328.741 351.826 327.846 352.837C325.15 355.629 319.992 354.85 317.663 351.746C315.333 348.642 315.646 344.071 317.742 340.804" stroke="black" stroke-width="5" stroke-miterlimit="10" stroke-linecap="round"/>
<path d="M183.596 335.796C186.286 338.027 188.047 341.181 188.533 344.642C188.95 348.075 187.763 351.725 185.2 354.058C182.758 356.287 179.304 357.162 175.996 357.071C166.479 356.8 157.971 348.162 157.85 338.642" stroke="black" stroke-width="5" stroke-miterlimit="10" stroke-linecap="round"/>
<path d="M167.404 301.787L174.113 325.462C175.267 329.533 176.433 333.721 176.013 337.929C175.842 339.596 175.396 341.308 174.367 342.642C173.338 343.975 171.633 344.879 169.971 344.608C168.89 344.382 167.9 343.841 167.125 343.054C163.242 339.45 162.804 332.746 166.188 328.667" stroke="black" stroke-width="5" stroke-miterlimit="10" stroke-linecap="round"/>
<path d="M292.083 263.333C294.083 263.383 298.25 260.779 298.25 259.738Z" fill="#F2F2F2"/>
<path d="M292.083 263.333C294.083 263.383 298.25 260.779 298.25 259.738" stroke="black" stroke-width="3" stroke-linecap="round" stroke-linejoin="round"/>
<path d="M288.45 261.783C290.45 261.833 294.617 259.229 294.617 258.188Z" fill="#F2F2F2"/>
<path d="M288.45 261.783C290.45 261.833 294.617 259.229 294.617 258.188" stroke="black" stroke-width="3" stroke-linecap="round" stroke-linejoin="round"/>
<path d="M220.95 270.95C224.547 270.95 227.462 268.034 227.462 264.438C227.462 260.841 224.547 257.925 220.95 257.925C217.353 257.925 214.438 260.841 214.438 264.438C214.438 268.034 217.353 270.95 220.95 270.95Z" fill="black"/>
<path d="M215.892 262.192C213.892 262.242 209.725 259.638 209.725 258.596Z" fill="#F2F2F2"/>
<path d="M215.892 262.192C213.892 262.242 209.725 259.638 209.725 258.596" stroke="black" stroke-width="3" stroke-linecap="round" stroke-linejoin="round"/>
<path d="M219.538 260.629C217.538 260.679 213.371 258.075 213.371 257.033Z" fill="#F2F2F2"/>
<path d="M219.538 260.629C217.538 260.679 213.371 258.075 213.371 257.033" stroke="black" stroke-width="3" stroke-linecap="round" stroke-linejoin="round"/>
</g>
<defs>
<clipPath id="clip0_427_162">
<rect width="500" height="500" fill="white"/>
</clipPath>
</defs>
</svg>
