<svg width="500" height="500" viewBox="0 0 500 500" fill="none" xmlns="http://www.w3.org/2000/svg">
<g clip-path="url(#clip0_427_128)">
<path d="M462.679 500H37.3208C37.9792 478.458 40.3542 455.638 47.3667 452.879C61.0125 447.521 167.812 390.958 178.162 383.517C182.304 380.538 187.992 377.608 194.358 374.85C199.421 372.658 204.917 370.567 210.417 368.642C211.1 368.4 211.779 368.167 212.462 367.933C219.525 365.512 226.512 363.375 232.5 361.642C242.683 358.696 250 356.921 250 356.921C250 356.921 255.225 358.171 262.979 360.354C269.692 362.233 278.308 364.787 287.071 367.775L287.421 367.896C293.75 370.063 300.146 372.458 305.954 374.979C310.134 376.759 314.198 378.8 318.121 381.092C319.129 381.696 320.087 382.304 320.983 382.912C321.275 383.112 321.562 383.329 321.817 383.508C332.167 390.95 438.967 447.513 452.612 452.871C459.646 455.638 462.021 478.458 462.679 500Z" fill="#F2F2F2" stroke="black" stroke-width="5" stroke-linecap="round" stroke-linejoin="round"/>
<path d="M287.421 436.712C287.421 467.037 210.417 467.037 210.417 436.712V335.879H287.421V436.712Z" fill="#F2F2F2" stroke="black" stroke-width="5" stroke-linecap="round" stroke-linejoin="round"/>
<path d="M234.167 500H192.625C175.858 479.75 160.917 460.95 159.796 456.933C157.242 447.767 204.337 420.329 201.271 418.213C198.204 416.096 164.104 415.4 163.229 409.767C162.854 407.367 169.921 395.896 178.162 383.517C189.254 366.85 202.475 348.517 202.475 348.517C203.979 346.35 205.271 345.288 206.375 345.133C208.162 344.867 209.467 346.954 210.417 350.529C211.533 354.738 212.146 361.013 212.462 367.925C213.221 384.525 212.233 404.804 212.246 409.054C212.246 411.225 214.771 422.388 218.496 437.763C219.696 442.713 221.021 448.092 222.429 453.75C226.042 468.242 230.187 484.542 234.167 500Z" fill="#44C6AC" stroke="black" stroke-width="5" stroke-miterlimit="10" stroke-linecap="round"/>
<path d="M339.733 456.933C338.617 460.95 323.671 479.75 306.908 500H265.375C269.45 484.167 273.708 467.4 277.375 452.646C278.496 448.129 279.562 443.808 280.55 439.729C284.546 423.337 287.283 411.312 287.287 409.046C287.287 404.783 286.308 384.392 287.071 367.758C287.162 365.8 287.275 363.896 287.421 362.075C287.896 356.112 288.671 351.062 289.921 348.058C291.475 344.308 293.75 343.75 297.054 348.508C297.054 348.508 309.229 365.375 320.021 381.467L320.979 382.904C329.379 395.508 336.683 407.317 336.3 409.75C335.425 415.383 301.325 416.087 298.254 418.196C295.183 420.304 342.292 447.779 339.733 456.933Z" fill="#44C6AC" stroke="black" stroke-width="5" stroke-miterlimit="10" stroke-linecap="round"/>
<path d="M339.342 242.917C339.342 308.496 272.554 361.667 249.342 365.696C226.129 369.725 156.554 308.496 156.554 242.917C156.554 177.337 197.471 124.167 247.946 124.167C298.421 124.167 339.342 177.337 339.342 242.917Z" fill="#F2F2F2" stroke="black" stroke-width="5" stroke-linecap="round" stroke-linejoin="round"/>
<path d="M212.575 143.013C216.2 145.779 213.204 148.546 216.825 151.313C224.175 143.147 233.222 136.689 243.333 132.392C245.075 131.654 246.963 130.975 248.813 131.354C250.529 131.708 251.929 132.929 253.125 134.212C255.963 137.307 258.093 140.982 259.367 144.983C260.64 148.984 261.027 153.214 260.5 157.379L271.054 150.938C274.695 163.015 281.388 173.951 290.488 182.688L293.654 173.046C310.738 182.288 322.288 200.108 326.571 219.096C330.854 238.083 329.125 273.95 334.446 271.3C326.217 291.533 319.346 308.029 305.671 325.05C309.004 325.671 293.671 332.079 296.088 329.692C284.908 341.579 288.429 350.279 294.004 365.629C297.563 375.413 312.754 382.296 323.104 381.642C333.713 380.983 342.517 373.629 350.975 367.179C359.433 360.729 369.663 354.583 380.054 356.792C375.763 345.267 384.671 334.079 388.492 323.746C392.569 312.662 395.093 301.067 395.992 289.292C397.771 266.263 393.446 242.692 382.979 222.054C378.592 213.396 373.021 204.358 374.446 194.754L382.5 199.858C385.679 188.904 380.025 177.483 374.071 167.75C360.996 146.375 359.396 122.046 342.704 102.158C329.275 86.1583 311.771 73.2958 291.713 67.0417C263.975 58.3917 231.429 63.6333 210.117 83.3833C208.496 84.8833 206.783 86.5417 204.575 86.7833C202.763 86.9833 201.013 86.1583 199.333 85.4375C182.913 78.3542 163.083 79.8375 147.879 89.2708C135.65 96.8625 126.883 108.813 118.429 120.467L133.746 118.592C126.32 129.766 119.514 141.341 113.358 153.262C109.558 160.621 105.971 168.225 104.538 176.379C102.821 186.183 104.304 196.238 104.058 206.188C103.767 218.079 97.45 226.771 95.1542 237.913C93.7671 244.405 93.3877 251.072 94.0292 257.679C94.3042 260.242 100.075 275.363 99.5333 276.267C100.456 274.762 101.703 273.481 103.184 272.52C104.665 271.558 106.341 270.939 108.092 270.708C106.567 286.958 105.175 304.042 111.842 318.925C114.679 325.25 118.813 331.542 123.229 336.879C126.583 340.929 129.013 345.733 123.371 349.796C125.542 348.238 133.788 355.896 135.067 357.325C138.496 361.183 139.371 365.954 142.088 370.054C147.921 378.829 160.233 384.196 170.421 384.35C183.163 384.546 207.504 379.35 212.738 367.725C217.971 356.1 214.221 342.538 204.404 334.392C203.742 335.796 198.846 333.304 198.179 334.708C183.283 320.308 170.417 303.258 162.808 275C165.338 275.038 165.421 244.713 164.513 229.538C163.508 212.671 162.188 196.954 176.313 186.7C184.113 181.037 190.538 175.45 195.896 167.288C197.283 165.213 211.308 142.046 212.575 143.013Z" fill="#070606"/>
<path d="M259.658 244.021C257.292 244.533 255.208 249.217 257.812 253.908C260.417 258.6 260.417 250.258 260.417 250.258L259.658 244.021Z" fill="#F2F2F2" stroke="black" stroke-width="5" stroke-linecap="round" stroke-linejoin="round"/>
<path d="M233.408 244.021C235.775 244.533 237.858 249.221 235.254 253.908C232.65 258.596 232.65 250.258 232.65 250.258L233.408 244.021Z" fill="#F2F2F2" stroke="black" stroke-width="5" stroke-linecap="round" stroke-linejoin="round"/>
<path d="M173.879 225.804C173.879 217.862 235.233 217.862 235.233 225.804C235.233 225.804 235.233 277.571 204.554 277.571C173.875 277.571 173.879 225.804 173.879 225.804Z" fill="#F2F2F2" stroke="black" stroke-width="5" stroke-linecap="round" stroke-linejoin="round"/>
<path d="M257.696 225.804C257.696 217.862 319.05 217.862 319.05 225.804C319.05 225.804 319.05 277.571 288.371 277.571C257.692 277.571 257.696 225.804 257.696 225.804Z" fill="#F2F2F2" stroke="black" stroke-width="5" stroke-linecap="round" stroke-linejoin="round"/>
<path d="M258.496 236.762C258.496 229.321 234.433 229.321 234.433 236.762Z" fill="#F2F2F2"/>
<path d="M258.496 236.762C258.496 229.321 234.433 229.321 234.433 236.762" stroke="black" stroke-width="5" stroke-linecap="round" stroke-linejoin="round"/>
<path d="M315.758 222.971L327.175 224.187" stroke="black" stroke-width="5" stroke-linecap="round" stroke-linejoin="round"/>
<path d="M174.988 223.458L160.375 224.917" stroke="black" stroke-width="5" stroke-linecap="round" stroke-linejoin="round"/>
<path d="M230.096 272.083C227.779 272.083 227.179 277.292 230.096 279.029C233.013 280.767 238.538 273.554 240.408 276.996C242.621 281.079 248.792 282.533 251.758 276.75C253.654 273.054 257.858 278.162 261.058 277.729C264.258 277.296 264.196 271.25 261.308 270.133" stroke="black" stroke-width="5.02" stroke-linecap="round" stroke-linejoin="round"/>
<path d="M228.492 305.367C229.742 324.471 262.154 324.471 263.113 305.367" stroke="black" stroke-width="6.56" stroke-linecap="round" stroke-linejoin="round"/>
<path d="M286.133 250.104C289.208 250.104 291.7 246.72 291.7 242.546C291.7 238.371 289.208 234.987 286.133 234.987C283.059 234.987 280.567 238.371 280.567 242.546C280.567 246.72 283.059 250.104 286.133 250.104Z" fill="black"/>
<path d="M289.121 238.025C290.996 238.071 294.892 235.633 294.892 234.663Z" fill="#F2F2F2"/>
<path d="M289.121 238.025C290.996 238.071 294.892 235.633 294.892 234.663" stroke="black" stroke-width="3" stroke-linecap="round" stroke-linejoin="round"/>
<path d="M285.713 236.562C287.583 236.608 291.479 234.175 291.479 233.2Z" fill="#F2F2F2"/>
<path d="M285.713 236.562C287.583 236.608 291.479 234.175 291.479 233.2" stroke="black" stroke-width="3" stroke-linecap="round" stroke-linejoin="round"/>
<path d="M205.471 250.104C208.545 250.104 211.038 246.72 211.038 242.546C211.038 238.371 208.545 234.987 205.471 234.987C202.396 234.987 199.904 238.371 199.904 242.546C199.904 246.72 202.396 250.104 205.471 250.104Z" fill="black"/>
<path d="M202.5 238.025C200.629 238.071 196.733 235.633 196.733 234.663Z" fill="#F2F2F2"/>
<path d="M202.5 238.025C200.629 238.071 196.733 235.633 196.733 234.663" stroke="black" stroke-width="3" stroke-linecap="round" stroke-linejoin="round"/>
<path d="M205.892 236.562C204.021 236.608 200.121 234.175 200.121 233.2Z" fill="#F2F2F2"/>
<path d="M205.892 236.562C204.021 236.608 200.121 234.175 200.121 233.2" stroke="black" stroke-width="3" stroke-linecap="round" stroke-linejoin="round"/>
<path d="M181.025 212.562C185.45 201.004 225.392 200.425 228.75 212.562Z" fill="#F2F2F2"/>
<path d="M181.025 212.562C185.45 201.004 225.392 200.425 228.75 212.562" stroke="black" stroke-width="5" stroke-linecap="round" stroke-linejoin="round"/>
<path d="M311.421 212.562C306.996 201.004 267.058 200.425 263.7 212.562Z" fill="#F2F2F2"/>
<path d="M311.421 212.562C306.996 201.004 267.058 200.425 263.7 212.562" stroke="black" stroke-width="5" stroke-linecap="round" stroke-linejoin="round"/>
<path d="M336.775 222.792C336.775 222.792 358.508 220.925 358.508 244.608C358.508 268.292 333.804 277.288 333.804 277.288L336.775 222.792Z" fill="#F2F2F2" stroke="black" stroke-width="5" stroke-linecap="round" stroke-linejoin="round"/>
<path d="M159.725 222.792C159.725 222.792 137.992 220.925 137.992 244.608C137.992 268.292 162.696 277.288 162.696 277.288L159.725 222.792Z" fill="#F2F2F2" stroke="black" stroke-width="5" stroke-linecap="round" stroke-linejoin="round"/>
<path d="M310.617 272.225C310.617 272.225 312.383 274.358 313.446 275.425" stroke="black" stroke-width="5" stroke-linecap="round" stroke-linejoin="round"/>
<path d="M313.642 267.688C313.642 267.688 315.408 269.817 316.471 270.883" stroke="black" stroke-width="5" stroke-linecap="round" stroke-linejoin="round"/>
<path d="M180.833 272.225C180.833 272.225 179.062 274.358 178 275.425" stroke="black" stroke-width="5" stroke-linecap="round" stroke-linejoin="round"/>
<path d="M177.783 267.688C177.783 267.688 176.017 269.817 174.954 270.883" stroke="black" stroke-width="5" stroke-linecap="round" stroke-linejoin="round"/>
<path d="M280.258 289.608C281.317 289.608 282.175 288.75 282.175 287.692C282.175 286.633 281.317 285.775 280.258 285.775C279.2 285.775 278.342 286.633 278.342 287.692C278.342 288.75 279.2 289.608 280.258 289.608Z" fill="black"/>
</g>
<defs>
<clipPath id="clip0_427_128">
<rect width="500" height="500" fill="white"/>
</clipPath>
</defs>
</svg>
