<svg width="500" height="500" viewBox="0 0 500 500" fill="none" xmlns="http://www.w3.org/2000/svg">
<g clip-path="url(#clip0_427_366)">
<path d="M461.25 499.767H217.629C211.142 500.092 204.783 500.062 198.662 499.767H38.75C41.475 478.162 53.85 453.412 53.85 453.412C53.85 453.412 53.8958 453.354 53.9917 453.246C57.0833 449.75 109.129 392.5 207.596 385.129C215.992 384.5 224.725 384.238 233.796 384.4C235.882 384.436 238.022 384.492 240.217 384.567C250.517 384.913 261.883 385.646 273.725 386.729C309.433 389.979 349.85 396.354 380.758 404.646C397.767 409.204 411.9 414.333 420.758 419.833C425.096 422.521 429.033 426.129 432.596 430.367C449.554 450.446 458.108 484.5 461.25 499.767Z" fill="#F2F2F2" stroke="black" stroke-width="5" stroke-miterlimit="10" stroke-linecap="round"/>
<path d="M438.233 425.292C436.537 426.9 434.671 428.583 432.613 430.35C432.133 430.767 431.637 431.183 431.133 431.6C431.133 431.6 397.904 473.288 334.567 499.763H217.629C211.142 500.088 204.783 500.058 198.663 499.763H112.829C83.6417 486.942 63.6208 469.929 54.0083 453.242C46.825 440.771 45.4542 428.492 50.4125 418.275C52.3917 414.2 95.4125 387.442 96.4875 382.121C101.233 358.371 98.1542 324.979 98.1542 306.6V241.871C98.1542 174.058 149.55 115.913 222.05 115.913C362.762 115.913 392.746 329.758 392.746 329.758C392.736 333.086 393.005 336.409 393.55 339.692C402.588 393.254 484.283 381.667 438.233 425.292Z" fill="#F2F2F2" stroke="black" stroke-width="5" stroke-miterlimit="10" stroke-linecap="round"/>
<path d="M308.933 256.446C308.933 208.62 270.163 169.85 222.337 169.85C174.512 169.85 135.742 208.62 135.742 256.446V299.642C135.742 347.467 174.512 386.237 222.337 386.237C270.163 386.237 308.933 347.467 308.933 299.642V256.446Z" fill="#F2F2F2" stroke="black" stroke-width="5" stroke-miterlimit="10" stroke-linecap="round"/>
<path d="M393.058 330.075C394.308 343.408 397.5 420.183 339.754 444.933" stroke="black" stroke-width="5" stroke-miterlimit="10" stroke-linecap="round"/>
<path d="M287.083 478.362C265.696 492.879 240.833 498.604 217.625 499.767C211.138 500.092 204.779 500.062 198.658 499.767C172.117 498.483 150.108 492.229 141.771 488.517" stroke="black" stroke-width="5" stroke-miterlimit="10" stroke-linecap="round"/>
<path d="M122.083 332.613C122.717 344.038 122.917 387.904 106.854 398.608C97.3333 404.954 77.0292 418.279 72.5875 425.275" stroke="black" stroke-width="5" stroke-miterlimit="10" stroke-linecap="round"/>
<path d="M317.546 323.096C310.567 347.208 297.238 380.842 261.713 391.629" stroke="black" stroke-width="5" stroke-miterlimit="10" stroke-linecap="round"/>
<path d="M275.029 177.779C269.954 178.417 253.454 175.242 259.167 164.446C264.879 153.65 272.5 165.717 278.2 172.696L275.029 177.779Z" fill="#44C6AC" stroke="black" stroke-width="5" stroke-miterlimit="10" stroke-linecap="round"/>
<path d="M278.846 180.833C279.737 185.871 287.633 200.7 296.258 192.083C304.883 183.467 290.133 178.7 281.779 175.3L278.863 180.854" fill="#44C6AC"/>
<path d="M278.846 180.833C279.737 185.871 287.633 200.7 296.258 192.083C304.883 183.467 290.133 178.7 281.779 175.3L278.863 180.854" stroke="black" stroke-width="5" stroke-miterlimit="10" stroke-linecap="round"/>
<path d="M278.146 180.754C280.456 180.754 282.329 178.881 282.329 176.571C282.329 174.26 280.456 172.388 278.146 172.388C275.835 172.388 273.963 174.26 273.963 176.571C273.963 178.881 275.835 180.754 278.146 180.754Z" fill="#44C6AC" stroke="black" stroke-width="5" stroke-miterlimit="10" stroke-linecap="round"/>
<path d="M306.437 234.892C295.971 219.029 273.104 173.338 219.821 176.513C166.537 179.688 141.771 219.662 136.071 250.121" stroke="black" stroke-width="5" stroke-miterlimit="10" stroke-linecap="round"/>
<path d="M144.308 261.842H135.742" stroke="black" stroke-width="5" stroke-miterlimit="10" stroke-linecap="round"/>
<path d="M308.662 261.842H302" stroke="black" stroke-width="5" stroke-miterlimit="10" stroke-linecap="round"/>
<path d="M150.638 190.788C137.688 199.654 129.504 215.096 129.433 230.788" stroke="black" stroke-width="5" stroke-miterlimit="10" stroke-linecap="round"/>
<path d="M307.883 218.438C313.771 229.877 316.061 242.83 314.454 255.596" stroke="black" stroke-width="5" stroke-miterlimit="10" stroke-linecap="round"/>
<path d="M339.808 215.833C348.828 223.484 355.477 233.548 358.975 244.846C361.642 253.513 362.367 262.642 364.142 271.513C365.917 280.383 368.954 289.429 375.3 295.904" stroke="black" stroke-width="5" stroke-miterlimit="10" stroke-linecap="round"/>
<path d="M379.046 328.863C379.825 335.113 380.604 341.5 379.487 347.713C378.725 351.958 377.096 355.996 375.867 360.138C372.806 370.473 372.235 381.385 374.2 391.983" stroke="black" stroke-width="5" stroke-miterlimit="10" stroke-linecap="round"/>
<path d="M210.304 264.083C210.207 272.771 206.687 281.069 200.509 287.178C194.332 293.286 185.994 296.713 177.306 296.713C168.618 296.713 160.281 293.286 154.103 287.178C147.926 281.069 144.406 272.771 144.308 264.083C144.308 245.858 159.083 234.892 177.308 234.892C195.533 234.892 210.304 245.858 210.304 264.083Z" fill="#44C6AC" stroke="black" stroke-width="5" stroke-miterlimit="10" stroke-linecap="round"/>
<path d="M302.317 264.083C302.219 272.771 298.699 281.069 292.522 287.178C286.344 293.286 278.007 296.713 269.319 296.713C260.631 296.713 252.293 293.286 246.116 287.178C239.938 281.069 236.418 272.771 236.321 264.083C236.321 245.858 251.096 234.892 269.317 234.892C287.537 234.892 302.317 245.858 302.317 264.083Z" fill="#44C6AC" stroke="black" stroke-width="5" stroke-miterlimit="10" stroke-linecap="round"/>
<path d="M287.533 250.208C277.296 238.396 264.962 236.558 251.008 246.192" stroke="black" stroke-width="6.12" stroke-linecap="round" stroke-linejoin="round"/>
<path d="M159 250.208C169.233 238.396 181.567 236.558 195.521 246.192" stroke="black" stroke-width="6.12" stroke-linecap="round" stroke-linejoin="round"/>
<path d="M265.513 269.792C269.017 269.792 271.858 265.531 271.858 260.275C271.858 255.019 269.017 250.758 265.513 250.758C262.008 250.758 259.167 255.019 259.167 260.275C259.167 265.531 262.008 269.792 265.513 269.792Z" fill="black"/>
<path d="M178.575 269.792C182.08 269.792 184.921 265.531 184.921 260.275C184.921 255.019 182.08 250.758 178.575 250.758C175.07 250.758 172.229 255.019 172.229 260.275C172.229 265.531 175.07 269.792 178.575 269.792Z" fill="black"/>
<path d="M210.292 266.962C210.292 256.679 236.333 256.679 236.333 266.962" stroke="black" stroke-width="5" stroke-miterlimit="10" stroke-linecap="round"/>
<path d="M199.517 323.096C202.054 350.383 250.917 347.208 254.725 323.096" stroke="black" stroke-width="7.09" stroke-linecap="round" stroke-linejoin="round"/>
<path d="M285.425 299.488L293.821 295.292" stroke="black" stroke-width="5.21" stroke-linecap="round" stroke-linejoin="round"/>
<path d="M286.954 307.117L292.554 302.921" stroke="black" stroke-width="5.21" stroke-linecap="round" stroke-linejoin="round"/>
<path d="M169.071 304.563L160.679 300.367" stroke="black" stroke-width="5.21" stroke-linecap="round" stroke-linejoin="round"/>
<path d="M161.833 310.925L156.237 306.729" stroke="black" stroke-width="5.21" stroke-linecap="round" stroke-linejoin="round"/>
<path d="M270.725 254.95C272.725 255 276.892 252.396 276.892 251.354Z" fill="#F2F2F2"/>
<path d="M270.725 254.95C272.725 255 276.892 252.396 276.892 251.354" stroke="black" stroke-width="3" stroke-linecap="round" stroke-linejoin="round"/>
<path d="M267.083 253.388C269.083 253.438 273.25 250.833 273.25 249.792Z" fill="#F2F2F2"/>
<path d="M267.083 253.388C269.083 253.438 273.25 250.833 273.25 249.792" stroke="black" stroke-width="3" stroke-linecap="round" stroke-linejoin="round"/>
<path d="M173.246 254.95C171.246 255 167.079 252.396 167.079 251.354Z" fill="#F2F2F2"/>
<path d="M173.246 254.95C171.246 255 167.079 252.396 167.079 251.354" stroke="black" stroke-width="3" stroke-linecap="round" stroke-linejoin="round"/>
<path d="M176.892 253.388C174.892 253.438 170.725 250.833 170.725 249.792Z" fill="#F2F2F2"/>
<path d="M176.892 253.388C174.892 253.438 170.725 250.833 170.725 249.792" stroke="black" stroke-width="3" stroke-linecap="round" stroke-linejoin="round"/>
<path d="M223.442 278.592C220.265 278.592 217.218 279.854 214.971 282.1C212.725 284.347 211.463 287.394 211.463 290.571C211.463 293.748 212.725 296.795 214.971 299.041C217.218 301.288 220.265 302.55 223.442 302.55" stroke="black" stroke-width="5" stroke-linecap="round" stroke-linejoin="round"/>
</g>
<defs>
<clipPath id="clip0_427_366">
<rect width="500" height="500" fill="white"/>
</clipPath>
</defs>
</svg>
