<svg width="500" height="500" viewBox="0 0 500 500" fill="none" xmlns="http://www.w3.org/2000/svg">
<g clip-path="url(#clip0_427_290)">
<path d="M435.9 499.371C435.9 499.371 57.7083 500.533 57.7083 499.7C57.7083 488.45 87 439.329 87 439.329C87 439.329 188.221 386.125 211.137 384.329C211.554 384.296 211.933 384.279 212.292 384.279H213.125L279.479 384.454H279.787C279.857 384.45 279.926 384.45 279.996 384.454H280.412H280.417C282.142 384.58 283.853 384.859 285.529 385.287C314.754 392.371 402.971 440.196 402.971 440.196C410.579 444.042 435.9 499.371 435.9 499.371Z" fill="#44C6AC" stroke="black" stroke-width="5" stroke-linecap="round" stroke-linejoin="round"/>
<path d="M279.5 370.508L279.325 437.679L244.75 449.354L212.975 436.271L213.142 372.354" fill="#F2F2F2"/>
<path d="M279.5 370.508L279.325 437.679L244.75 449.354L212.975 436.271L213.142 372.354" stroke="black" stroke-width="5" stroke-linecap="round" stroke-linejoin="round"/>
<path d="M212.258 386.408C212.258 386.408 200.667 394.413 202.917 404.388C205.167 414.363 206.942 420.767 213.596 424.283L212.258 386.408Z" fill="black"/>
<path d="M280.392 384.442C280.392 384.442 293.646 393.012 291.004 403.608C288.362 414.204 286.296 420.983 278.646 424.683L280.392 384.442Z" fill="black"/>
<path d="M279.975 384.437C284.713 389.767 297.708 391.937 287.117 416.892C282.667 427.379 249.925 435.404 249.925 435.404L244.925 449.217C244.925 449.217 286.417 444.008 298.829 432.342C311.242 420.675 299.787 383.958 279.975 384.437Z" fill="#44C6AC" stroke="black" stroke-width="5" stroke-linecap="round" stroke-linejoin="round"/>
<path d="M212.917 384.267C208.15 389.571 198.033 393.267 205 416.679C208.221 427.512 238.771 435.717 238.771 435.717L244.929 449.354C244.929 449.354 205.546 443.8 193.196 432.071C180.846 420.342 193.104 383.683 212.917 384.267Z" fill="#44C6AC" stroke="black" stroke-width="5" stroke-linecap="round" stroke-linejoin="round"/>
<path d="M244.496 499.633L244.625 449.308V449.3V449.042" stroke="black" stroke-width="6.02" stroke-linecap="round" stroke-linejoin="round"/>
<path d="M256.413 442.533C257.588 442.533 258.542 441.58 258.542 440.404C258.542 439.228 257.588 438.275 256.413 438.275C255.237 438.275 254.283 439.228 254.283 440.404C254.283 441.58 255.237 442.533 256.413 442.533Z" fill="black"/>
<path d="M233.504 442.475C234.68 442.475 235.633 441.522 235.633 440.346C235.633 439.17 234.68 438.217 233.504 438.217C232.328 438.217 231.375 439.17 231.375 440.346C231.375 441.522 232.328 442.475 233.504 442.475Z" fill="black"/>
<path d="M334.583 267.717C334.583 267.717 355 263.717 354.921 287.383C354.842 311.05 320.283 312.121 320.283 312.121C326.564 297.85 331.356 282.97 334.583 267.717Z" fill="#F2F2F2" stroke="black" stroke-width="5" stroke-linecap="round" stroke-linejoin="round"/>
<path d="M154.375 267.717C154.375 267.717 133.979 263.717 134.042 287.383C134.104 311.05 168.679 312.121 168.679 312.121C162.395 297.851 157.602 282.971 154.375 267.717V267.717Z" fill="#F2F2F2" stroke="black" stroke-width="5" stroke-linecap="round" stroke-linejoin="round"/>
<path d="M338.233 239.354C338.1 293.238 297.487 385.342 244.483 385.188C191.479 385.033 151.371 292.733 151.508 238.85C151.646 184.967 192.121 147.358 245.117 147.5C298.113 147.642 338.367 185.471 338.233 239.354Z" fill="#F2F2F2" stroke="black" stroke-width="5" stroke-linecap="round" stroke-linejoin="round"/>
<path d="M206.046 274.908C209.498 274.908 212.296 272.11 212.296 268.658C212.296 265.207 209.498 262.408 206.046 262.408C202.594 262.408 199.796 265.207 199.796 268.658C199.796 272.11 202.594 274.908 206.046 274.908Z" fill="black"/>
<path d="M290.417 275.325C293.868 275.325 296.667 272.527 296.667 269.075C296.667 265.623 293.868 262.825 290.417 262.825C286.965 262.825 284.167 265.623 284.167 269.075C284.167 272.527 286.965 275.325 290.417 275.325Z" fill="black"/>
<path d="M311.458 296.367C313.163 286.508 303.433 280.587 295.054 287.042Z" fill="#F2F2F2"/>
<path d="M311.458 296.367C313.163 286.508 303.433 280.587 295.054 287.042" stroke="black" stroke-width="5" stroke-linecap="round" stroke-linejoin="round"/>
<path d="M184.004 296.367C182.3 286.508 192.029 280.587 200.404 287.042Z" fill="#F2F2F2"/>
<path d="M184.004 296.367C182.3 286.508 192.029 280.587 200.404 287.042" stroke="black" stroke-width="5" stroke-linecap="round" stroke-linejoin="round"/>
<path d="M244.633 306.342C265.633 306.396 265.7 281.017 244.696 280.962" stroke="black" stroke-width="5" stroke-linecap="round" stroke-linejoin="round"/>
<path d="M188.633 229.05C199.6 216.45 210.536 216.478 221.442 229.133" stroke="black" stroke-width="8.32" stroke-linecap="round" stroke-linejoin="round"/>
<path d="M271.587 229.267C282.56 216.667 293.497 216.694 304.4 229.35" stroke="black" stroke-width="8.32" stroke-linecap="round" stroke-linejoin="round"/>
<path d="M149.475 260.2C148.679 260.2 148.642 266.692 147.862 266.692C147.083 266.692 147.071 263.908 146.271 263.904C145.471 263.9 145.471 263.442 144.675 263.437C143.879 263.433 143.892 256.354 143.092 256.354C142.292 256.354 142.292 257 141.492 256.996C140.692 256.992 140.688 258.767 139.888 258.767C139.088 258.767 139.079 262.042 138.279 262.037C137.479 262.033 137.487 259.008 136.692 259.008C135.896 259.008 135.892 258.062 135.092 258.062C134.292 258.062 134.258 263.479 133.479 263.479C132.7 263.479 132.646 267.767 131.867 267.767C131.088 267.767 131.083 260.192 130.283 260.192" stroke="black" stroke-width="8.32" stroke-linecap="round" stroke-linejoin="round"/>
<path d="M166.692 311.425C165.962 311.787 165.071 310 164.342 310.362C163.613 310.725 162.425 308.35 161.696 308.696C160.967 309.042 161.629 310.387 160.9 310.75C160.171 311.112 159.129 309.029 158.4 309.392C157.671 309.754 163.312 321.037 162.567 321.404C161.821 321.771 157.879 313.85 157.15 314.212C156.421 314.575 160.167 322.067 159.437 322.433C158.708 322.8 155.754 316.892 155.025 317.254C154.296 317.617 157.379 323.787 156.65 324.154C155.921 324.521 154.887 322.442 154.15 322.808C153.412 323.175 153.062 322.462 152.333 322.808C151.604 323.154 149.087 318.133 148.358 318.5C147.629 318.867 150.937 325.487 150.208 325.85C149.479 326.212 146.217 319.696 145.488 320.062C144.758 320.429 143.929 318.771 143.196 319.137" stroke="black" stroke-width="8.32" stroke-linecap="round" stroke-linejoin="round"/>
<path d="M169.267 318.096C168.554 318.433 172.296 326.371 171.587 326.704C170.879 327.037 166.337 317.429 165.625 317.767C164.912 318.104 169.437 327.687 168.725 328.021C168.012 328.354 167.679 327.658 166.967 327.992C166.254 328.325 163.271 322.004 162.558 322.337C161.846 322.671 166.008 331.504 165.296 331.837C164.583 332.171 161.158 324.917 160.446 325.254C159.733 325.592 162.438 331.325 161.725 331.658C161.013 331.992 157.883 325.362 157.167 325.7C156.45 326.037 156.921 327.021 156.208 327.367C155.496 327.712 154.192 324.946 153.479 325.283C152.767 325.621 152.946 326 152.229 326.337C151.513 326.675 155.921 336.008 155.208 336.337C154.496 336.667 152.008 331.404 151.296 331.754C150.583 332.104 148.542 327.771 147.825 328.108C147.108 328.446 151.075 336.858 150.362 337.187" stroke="black" stroke-width="8.32" stroke-linecap="round" stroke-linejoin="round"/>
<path d="M147.3 248.75C146.504 248.75 146.467 245.396 145.667 245.417C144.867 245.438 144.833 243.15 144.046 243.158C143.258 243.167 143.379 253.75 142.583 253.75C141.788 253.75 141.75 249.396 140.937 249.408C140.125 249.421 140.196 253.821 139.4 253.829C138.604 253.838 138.567 251.496 137.775 251.504C136.983 251.513 136.942 249.242 136.154 249.254C135.367 249.267 135.362 249.513 134.567 249.525C133.771 249.538 133.733 247.813 132.95 247.825C132.167 247.838 132.175 249.696 131.379 249.708C130.583 249.721 130.567 248.217 129.767 248.229C128.967 248.242 128.933 245.054 128.133 245.063C127.333 245.071 127.442 253.75 126.642 253.75" stroke="black" stroke-width="8.32" stroke-linecap="round" stroke-linejoin="round"/>
<path d="M176.667 326.25C176.212 326.942 168.492 321.925 168.042 322.617C167.592 323.308 168.538 323.929 168.088 324.621C167.638 325.312 169.071 326.25 168.621 326.942C168.171 327.633 172.708 330.587 172.258 331.279C171.808 331.971 166.629 328.608 166.175 329.304C165.721 330 173.333 334.942 172.879 335.633C172.425 336.325 163.608 330.596 163.158 331.287C162.708 331.979 170.833 337.296 170.417 337.992C170 338.687 165.383 335.708 164.933 336.404C164.483 337.1 170.687 341.129 170.233 341.821C169.779 342.512 160.992 336.821 160.542 337.496C160.092 338.171 163.983 340.721 163.533 341.417C163.083 342.112 166.867 344.583 166.45 345.279C166.033 345.975 165.413 345.596 164.963 346.292C164.513 346.987 164.408 346.921 163.954 347.617" stroke="black" stroke-width="8.32" stroke-linecap="round" stroke-linejoin="round"/>
<path d="M147.421 244.167C146.621 244.167 146.562 239.138 145.754 239.146C144.946 239.154 144.967 239.8 144.171 239.812C143.375 239.825 143.337 235.525 142.525 235.533C141.712 235.542 141.779 239.362 140.983 239.371C140.187 239.379 140.242 244.129 139.446 244.137C138.65 244.146 138.512 233.108 137.717 233.117C136.921 233.125 136.908 232.221 136.113 232.229C135.317 232.237 135.446 242.721 134.65 242.729C133.854 242.737 133.712 231.6 132.917 231.612C132.121 231.625 132.146 233.483 131.346 233.496C130.546 233.508 130.629 239.987 129.833 239.996C129.037 240.004 128.946 232.667 128.146 232.675C127.346 232.683 127.471 242.675 126.675 242.7" stroke="black" stroke-width="8.32" stroke-linecap="round" stroke-linejoin="round"/>
<path d="M147.358 226.458C146.562 226.458 146.554 225.754 145.758 225.763C144.962 225.771 144.925 223.067 144.133 223.075C143.342 223.083 143.417 229.808 142.621 229.821C141.825 229.833 141.717 221.129 140.921 221.137C140.125 221.146 140.262 232.225 139.467 232.233C138.671 232.242 138.687 233.679 137.892 233.687C137.096 233.696 136.946 221.725 136.15 221.737C135.354 221.75 135.488 232.879 134.692 232.887C133.896 232.896 133.762 222.175 132.967 222.183C132.171 222.192 132.254 228.896 131.458 228.904C130.662 228.912 130.667 229.65 129.871 229.658C129.075 229.667 129.108 232.437 128.308 232.446C127.508 232.454 127.442 226.654 126.642 226.667" stroke="black" stroke-width="8.32" stroke-linecap="round" stroke-linejoin="round"/>
<path d="M155.417 221.625C154.612 221.625 154.612 207.321 153.812 207.321C153.012 207.321 153.008 214.737 152.204 214.737C151.4 214.737 151.404 214.858 150.6 214.858C149.796 214.858 149.796 221.883 148.996 221.883C148.196 221.883 148.192 205.267 147.392 205.267C146.592 205.267 146.587 212.35 145.783 212.35C144.979 212.35 144.983 208.425 144.179 208.425C143.375 208.425 143.375 227.433 142.575 227.433C141.775 227.433 141.771 206.696 140.967 206.696C140.162 206.696 140.167 222.254 139.362 222.254C138.558 222.254 138.562 215.354 137.758 215.354C136.954 215.354 136.954 213.342 136.154 213.342C135.354 213.342 135.35 209.112 134.55 209.112C133.75 209.112 133.746 226.458 132.942 226.458C132.137 226.458 132.142 226.729 131.337 226.729C130.533 226.729 130.533 221.692 129.733 221.692C128.933 221.692 128.929 211.3 128.125 211.3C127.321 211.3 127.321 220.525 126.517 220.525C125.713 220.525 125.717 217.95 124.912 217.95C124.108 217.95 124.125 213.75 123.333 213.75C122.542 213.75 122.533 205.467 121.729 205.467C120.925 205.467 120.925 226.812 120.121 226.812C119.317 226.812 119.317 227.446 118.512 227.446C117.708 227.446 117.708 215.896 116.904 215.896" stroke="black" stroke-width="8.32" stroke-linecap="round" stroke-linejoin="round"/>
<path d="M151.504 239.167C150.721 238.962 148.588 247.167 147.804 246.963C147.021 246.758 145.833 251.321 145.046 251.129C144.258 250.938 150.187 228.121 149.4 227.917C148.612 227.712 148.588 227.817 147.804 227.613C147.021 227.408 141.737 247.708 140.95 247.5C140.162 247.292 141.992 240.267 141.208 240.063C140.425 239.858 142.483 231.925 141.696 231.729C140.908 231.533 142.425 225.704 141.637 225.5C140.85 225.296 139.246 231.475 138.462 231.271C137.679 231.067 139.021 225.892 138.233 225.688C137.446 225.483 133.833 239.404 133.046 239.2C132.258 238.996 133.208 235.358 132.421 235.154C131.633 234.95 131.171 236.742 130.387 236.537C129.604 236.333 127.379 244.896 126.592 244.692C125.804 244.488 129.713 229.462 128.925 229.275C128.138 229.087 124.633 242.562 123.85 242.358C123.067 242.154 122.342 244.933 121.554 244.729C120.767 244.525 125.412 226.654 124.629 226.45C123.846 226.246 121.267 236.158 120.462 235.954C119.658 235.75 120.483 232.65 119.696 232.446C118.908 232.242 121.554 222.071 120.767 221.867C119.979 221.662 117.083 232.917 116.283 232.708C115.483 232.5 113.025 242.017 112.237 241.812C111.45 241.608 116.404 222.492 115.633 222.287C114.862 222.083 115.517 219.508 114.729 219.304C113.942 219.1 109.046 237.937 108.258 237.733" stroke="black" stroke-width="8.32" stroke-linecap="round" stroke-linejoin="round"/>
<path d="M155.379 211.283C154.579 211.283 154.692 201.617 153.887 201.604C153.083 201.592 153.179 193.617 152.379 193.608C151.579 193.6 151.392 209.075 150.592 209.067C149.792 209.058 149.971 193.592 149.167 193.583C148.362 193.575 148.254 203.167 147.45 203.167C146.646 203.167 146.533 213 145.729 212.992C144.925 212.983 145.146 194.283 144.346 194.275C143.546 194.267 143.471 200.492 142.679 200.483C141.887 200.475 141.942 194.963 141.142 194.954C140.342 194.946 140.183 208.179 139.379 208.171C138.575 208.163 138.633 203.55 137.829 203.542C137.025 203.533 136.996 207.179 136.183 207.171C135.371 207.163 135.35 211.071 134.517 211.063C133.683 211.054 133.808 203.217 133.004 203.208C132.2 203.2 132.321 192.975 131.521 192.967C130.721 192.958 130.617 201.458 129.812 201.45C129.008 201.442 129.1 193.629 128.3 193.621C127.5 193.613 127.417 200.288 126.633 200.288C125.85 200.288 125.8 202.85 124.996 202.842C124.192 202.833 124.187 203.217 123.383 203.208C122.579 203.2 122.463 212.904 121.658 212.896" stroke="black" stroke-width="8.32" stroke-linecap="round" stroke-linejoin="round"/>
<path d="M159.833 190.683C159.037 190.683 159.117 196.933 158.317 196.958C157.517 196.983 157.521 196.846 156.725 196.854C155.929 196.863 155.892 192.829 155.083 192.842C154.275 192.854 154.25 191.154 153.471 191.175C152.692 191.196 152.746 197.167 151.95 197.175C151.154 197.183 151.137 195.846 150.342 195.858C149.546 195.871 149.508 193.604 148.721 193.613C147.933 193.621 147.833 186.454 147.054 186.463C146.275 186.471 146.288 188.783 145.488 188.796C144.688 188.808 144.654 185.775 143.858 185.783C143.063 185.792 143.096 188.633 142.3 188.642C141.504 188.65 141.604 197.042 140.808 197.054C140.012 197.067 140.008 196.925 139.208 196.933" stroke="black" stroke-width="8.32" stroke-linecap="round" stroke-linejoin="round"/>
<path d="M168.542 180.4L148.492 175.183" stroke="black" stroke-width="8.32" stroke-linecap="round" stroke-linejoin="round"/>
<path d="M177.688 164.883C176.933 164.625 175.817 167.938 175.062 167.683C174.308 167.429 173.396 170.183 172.625 169.925C171.854 169.667 170.254 174.454 169.5 174.2C168.746 173.946 171.621 165.429 170.867 165.175C170.112 164.921 170.104 164.942 169.35 164.688C168.596 164.433 166.683 170.104 165.929 169.833C165.175 169.563 164.454 171.721 163.696 171.463C162.937 171.204 165.425 163.854 164.671 163.6C163.917 163.346 161.254 171.229 160.504 170.975C159.754 170.721 161.358 165.975 160.6 165.704C159.842 165.433 160.483 163.558 159.729 163.3C158.975 163.042 159.525 161.417 158.767 161.158C158.008 160.9 155.779 167.513 155.017 167.258" stroke="black" stroke-width="8.32" stroke-linecap="round" stroke-linejoin="round"/>
<path d="M188.233 161.7C187.454 161.525 187.962 159.271 187.187 159.096C186.412 158.921 185.812 161.562 185.037 161.387C184.262 161.212 185.517 155.654 184.737 155.479C183.958 155.304 183.179 158.779 182.4 158.604C181.621 158.429 181.337 159.704 180.558 159.529C179.779 159.354 179.154 162.137 178.375 161.962C177.596 161.787 179.208 154.567 178.454 154.392C177.7 154.217 177.863 153.383 177.088 153.208C176.313 153.033 174.171 162.475 173.4 162.3C172.629 162.125 174.321 154.6 173.546 154.425C172.771 154.25 171.879 158.129 171.113 157.954C170.346 157.779 171.946 150.629 171.171 150.454C170.396 150.279 168.038 160.704 167.258 160.529" stroke="black" stroke-width="8.32" stroke-linecap="round" stroke-linejoin="round"/>
<path d="M198.779 154.204C198.067 153.854 198.333 153.308 197.621 152.954C196.908 152.6 198.733 148.887 198.017 148.537C197.3 148.187 198.233 146.292 197.521 145.937C196.808 145.583 194.837 149.588 194.125 149.238C193.412 148.888 193.758 148.179 193.042 147.825C192.325 147.471 191.871 148.404 191.154 148.054C190.437 147.704 188.654 151.337 187.937 150.971C187.221 150.604 188.104 148.825 187.392 148.471C186.679 148.117 189.992 141.387 189.275 141.025C188.558 140.662 187.162 143.525 186.446 143.171C185.729 142.817 188.046 138.108 187.329 137.754C186.612 137.4 185.329 140.008 184.617 139.658C183.904 139.308 181.046 145.104 180.329 144.75" stroke="black" stroke-width="8.32" stroke-linecap="round" stroke-linejoin="round"/>
<path d="M215.65 145.204C215.2 144.517 212.167 146.492 211.717 145.8C211.267 145.108 208.383 146.979 207.946 146.287C207.508 145.596 211.071 143.267 210.621 142.575C210.171 141.883 209.546 142.292 209.096 141.6C208.646 140.908 211.479 139.062 211.029 138.371C210.579 137.679 204.904 141.375 204.454 140.683C204.004 139.992 206.954 138.079 206.488 137.387C206.021 136.696 209.196 134.637 208.746 133.95C208.296 133.262 205.546 135.05 205.096 134.367C204.646 133.683 203.779 134.237 203.329 133.533C202.879 132.829 206.604 130.412 206.154 129.721C205.704 129.029 200.579 132.367 200.129 131.671C199.679 130.975 202.025 129.446 201.575 128.754" stroke="black" stroke-width="8.32" stroke-linecap="round" stroke-linejoin="round"/>
<path d="M228.675 143.908C228.433 143.142 221.092 145.421 220.854 144.654C220.617 143.887 225.021 142.517 224.792 141.737C224.562 140.958 229.054 139.575 228.817 138.821C228.579 138.067 224.887 139.2 224.65 138.433C224.412 137.667 222.033 138.404 221.796 137.637C221.558 136.871 216.017 138.592 215.779 137.829C215.542 137.067 224.717 134.212 224.479 133.446C224.242 132.679 225.521 132.283 225.279 131.517C225.037 130.75 226.9 130.175 226.662 129.408C226.425 128.642 211.175 133.375 210.937 132.608C210.7 131.842 225.938 127.117 225.688 126.358C225.438 125.6 222.771 126.417 222.538 125.65C222.304 124.883 223.092 124.637 222.854 123.871C222.617 123.104 223.054 122.967 222.817 122.204C222.579 121.442 224.583 120.817 224.346 120.05C224.108 119.283 213.267 122.646 213.029 121.879C212.792 121.112 213.446 120.912 213.2 120.146C212.954 119.379 209.45 120.471 209.196 119.704C208.942 118.937 222.083 114.854 221.829 114.083" stroke="black" stroke-width="8.32" stroke-linecap="round" stroke-linejoin="round"/>
<path d="M230.763 142.204C230.663 141.417 226.05 142.004 225.95 141.212C225.85 140.421 225.863 140.421 225.763 139.629C225.663 138.837 225.729 138.829 225.625 138.037C225.521 137.246 229.483 136.742 229.375 135.954C229.267 135.167 232.404 134.767 232.292 133.975C232.179 133.183 226.933 133.854 226.829 133.067C226.725 132.279 238.121 130.817 238.021 130.029C237.921 129.242 239.342 129.054 239.242 128.262C239.142 127.471 237.258 127.712 237.158 126.921C237.058 126.129 228.1 127.275 227.992 126.504C227.883 125.733 222.608 126.387 222.504 125.596C222.4 124.804 232.871 123.467 232.771 122.679C232.671 121.892 231.588 122.025 231.488 121.233C231.388 120.442 231.904 120.375 231.8 119.567C231.696 118.758 238.417 117.917 238.333 117.121C238.25 116.325 231.775 117.154 231.667 116.362C231.558 115.571 225.346 116.362 225.246 115.571C225.146 114.779 233.579 113.704 233.458 112.908" stroke="black" stroke-width="8.32" stroke-linecap="round" stroke-linejoin="round"/>
<path d="M244.942 141.879C245.058 141.083 250.212 141.854 250.333 141.046C250.454 140.237 252.292 140.525 252.417 139.733C252.542 138.942 244.525 137.75 244.642 136.958C244.758 136.167 248.429 136.712 248.546 135.917C248.662 135.121 249.296 135.221 249.412 134.429C249.529 133.637 247.158 133.283 247.275 132.487C247.392 131.692 248.462 131.854 248.583 131.062C248.704 130.271 247.429 130.083 247.55 129.287C247.671 128.492 249.171 128.721 249.287 127.925C249.404 127.129 245.675 126.579 245.796 125.783C245.917 124.987 243.033 124.562 243.15 123.771C243.267 122.979 246.067 123.392 246.162 122.596C246.258 121.8 250.225 122.392 250.329 121.6C250.433 120.808 244.562 119.933 244.679 119.133C244.796 118.333 255.596 119.967 255.712 119.154C255.829 118.342 256.3 118.429 256.421 117.637" stroke="black" stroke-width="8.32" stroke-linecap="round" stroke-linejoin="round"/>
<path d="M238.6 146.217C238.642 145.417 236.654 145.317 236.696 144.517C236.737 143.717 229.112 143.325 229.154 142.525C229.196 141.725 227.904 141.658 227.942 140.858C227.979 140.058 246.229 140.996 246.275 140.196C246.321 139.396 237.408 138.946 237.45 138.137C237.492 137.329 224.263 136.658 224.304 135.854C224.346 135.05 232.475 135.475 232.517 134.675C232.558 133.875 239.104 134.212 239.146 133.425C239.187 132.637 231.229 132.213 231.275 131.413C231.321 130.613 234.925 130.8 234.967 130C235.008 129.2 234.288 129.167 234.329 128.363C234.371 127.558 246.054 128.167 246.096 127.363C246.137 126.558 248.125 126.667 248.179 125.867C248.233 125.067 234.667 124.371 234.708 123.571C234.75 122.771 236.375 122.854 236.437 122.054C236.5 121.254 227.546 120.804 227.588 119.992C227.629 119.179 239.279 119.792 239.321 118.992C239.362 118.192 229.471 117.683 229.513 116.879C229.554 116.075 238.925 116.562 238.967 115.762C239.008 114.962 237.087 114.862 237.129 114.062C237.171 113.262 243.125 113.567 243.167 112.767C243.208 111.967 247.408 112.183 247.45 111.383C247.492 110.583 242.929 110.346 242.971 109.542C243.012 108.737 248.783 109.038 248.804 108.233" stroke="black" stroke-width="8.32" stroke-linecap="round" stroke-linejoin="round"/>
<path d="M257.029 141.225C257.337 140.479 255.45 139.692 255.779 138.946C256.108 138.2 257.275 138.687 257.587 137.942C257.9 137.196 254.067 135.596 254.375 134.85C254.683 134.104 261.721 137.029 262.033 136.279C262.346 135.529 265.783 136.958 266.083 136.212C266.383 135.467 256.029 131.158 256.342 130.417C256.654 129.675 261.821 131.817 262.133 131.071C262.446 130.325 265.737 131.692 266.05 130.942C266.362 130.192 258.337 126.854 258.65 126.108C258.962 125.362 271.758 130.692 272.071 129.937C272.383 129.183 268.858 127.721 269.154 126.971C269.45 126.221 268.104 125.658 268.417 124.887C268.729 124.117 265.312 122.717 265.625 121.971C265.937 121.225 261.492 119.375 261.804 118.637C262.117 117.9 268.887 120.7 269.183 119.95C269.479 119.2 263.767 116.829 264.1 116.079C264.433 115.329 273.942 119.296 274.254 118.546C274.567 117.796 268.396 115.212 268.704 114.479C269.012 113.746 262.425 110.987 262.737 110.237" stroke="black" stroke-width="8.32" stroke-linecap="round" stroke-linejoin="round"/>
<path d="M265.258 142.708C265.571 141.933 270.479 143.912 270.788 143.125C271.096 142.337 271.175 142.383 271.488 141.612C271.8 140.842 270 140.112 270.312 139.342C270.625 138.571 271.033 138.733 271.346 137.962C271.658 137.192 267.596 135.55 267.896 134.775C268.196 134 270.567 134.954 270.879 134.179C271.192 133.404 268.404 132.283 268.717 131.508C269.029 130.733 275.487 133.337 275.8 132.567" stroke="black" stroke-width="8.32" stroke-linecap="round" stroke-linejoin="round"/>
<path d="M279.892 147.317C280.25 146.604 275.387 144.158 275.725 143.446C276.062 142.733 285.546 147.5 285.904 146.779C286.262 146.058 281.262 143.554 281.621 142.842C281.979 142.129 285.371 143.842 285.737 143.133C286.104 142.425 285.212 141.979 285.567 141.267C285.921 140.554 278.204 136.683 278.562 135.958C278.921 135.233 289.596 140.625 289.954 139.912C290.312 139.2 284.862 136.462 285.221 135.746C285.579 135.029 281.521 132.996 281.887 132.283C282.254 131.571 293.637 137.308 293.996 136.596C294.354 135.883 282.017 129.675 282.375 128.962C282.733 128.25 290.85 132.342 291.208 131.629C291.567 130.917 287.654 128.95 288.012 128.237C288.371 127.525 284.071 125.362 284.429 124.65C284.787 123.937 283.8 123.446 284.158 122.733C284.517 122.021 284.958 122.246 285.317 121.533C285.675 120.821 299.742 127.904 300.1 127.192C300.458 126.479 292.546 122.5 292.917 121.792C293.287 121.083 294.875 121.883 295.233 121.171C295.592 120.458 297.387 121.362 297.733 120.65" stroke="black" stroke-width="8.32" stroke-linecap="round" stroke-linejoin="round"/>
<path d="M263.496 147.058C263.825 146.308 275.283 151.292 275.608 150.546C275.933 149.8 268.387 146.512 268.712 145.762C269.037 145.012 262.462 142.142 262.767 141.392C263.071 140.642 260.083 139.337 260.408 138.587C260.733 137.837 281.008 146.667 281.333 145.904C281.658 145.142 274.304 141.954 274.629 141.204C274.954 140.454 270.646 138.579 270.971 137.829C271.296 137.079 273.471 138.029 273.8 137.279C274.129 136.529 270.417 134.917 270.746 134.167C271.075 133.417 284.704 139.346 285.033 138.596C285.362 137.846 264.242 128.662 264.583 127.917C264.925 127.171 272.242 130.358 272.567 129.608C272.892 128.858 285.379 134.287 285.708 133.542C286.037 132.796 288.5 133.862 288.829 133.125C289.158 132.387 269.354 123.75 269.679 123.004C270.004 122.258 267.437 121.137 267.762 120.387C268.087 119.637 278.867 124.325 279.192 123.579C279.517 122.833 269 118.25 269.325 117.5C269.65 116.75 284.617 123.258 284.942 122.5C285.267 121.742 284.367 121.358 284.696 120.608C285.025 119.858 278.95 117.221 279.279 116.471C279.608 115.721 273.517 113.071 273.862 112.304C274.208 111.537 290 118.429 290.325 117.679C290.65 116.929 281.267 112.846 281.575 112.096C281.883 111.346 275.325 108.496 275.667 107.742C276.008 106.987 295.146 115.325 295.471 114.571C295.796 113.817 289.15 110.929 289.479 110.179C289.808 109.429 285.208 107.429 285.537 106.675" stroke="black" stroke-width="8.32" stroke-linecap="round" stroke-linejoin="round"/>
<path d="M289.825 153.333C290.375 152.787 289.979 152.387 290.533 151.842C291.088 151.296 292.658 152.875 293.208 152.325C293.758 151.775 293.925 151.942 294.458 151.396C294.992 150.85 295.412 151.254 295.962 150.704C296.512 150.154 293.571 147.196 294.125 146.65C294.679 146.104 296.35 147.783 296.9 147.233C297.45 146.683 297.483 146.712 298.037 146.167C298.592 145.621 295.862 142.875 296.417 142.325C296.971 141.775 298.217 143.033 298.771 142.483" stroke="black" stroke-width="8.32" stroke-linecap="round" stroke-linejoin="round"/>
<path d="M282.5 156.067C282.917 155.387 291.817 161.117 292.25 160.442C292.683 159.767 280.196 151.692 280.633 151.025C281.071 150.358 282.246 151.108 282.683 150.429C283.121 149.75 286.092 151.679 286.529 150.996C286.967 150.312 288.262 151.154 288.696 150.479C289.129 149.804 293.787 152.804 294.221 152.146C294.654 151.487 286.721 146.333 287.137 145.658C287.554 144.983 284.062 142.717 284.5 142.042C284.937 141.367 298.479 150.108 298.913 149.433C299.346 148.758 284.721 139.312 285.163 138.633C285.604 137.954 297.5 145.621 297.917 144.946C298.333 144.271 292.217 140.304 292.654 139.629C293.092 138.954 297.883 142.046 298.321 141.371C298.758 140.696 297.458 139.854 297.904 139.179C298.35 138.504 293.429 135.329 293.867 134.654C294.304 133.979 293.958 133.754 294.396 133.075C294.833 132.396 293.312 131.408 293.75 130.742C294.187 130.075 304.671 136.829 305.108 136.158C305.546 135.487 303.317 134.042 303.754 133.367C304.192 132.692 293.296 125.654 293.754 124.979C294.212 124.304 308.417 133.483 308.854 132.808C309.292 132.133 295.229 123.05 295.667 122.392C296.104 121.733 301.213 125.012 301.65 124.333C302.088 123.654 297.042 120.396 297.483 119.717" stroke="black" stroke-width="8.32" stroke-linecap="round" stroke-linejoin="round"/>
<path d="M323.075 301.775C323.837 302.096 320.296 310.437 321.054 310.758C321.812 311.079 325.487 302.425 326.25 302.758C327.012 303.092 323.333 311.779 324.075 312.104C324.817 312.429 326.358 308.846 327.117 309.187C327.875 309.529 328.283 308.554 329.046 308.879C329.808 309.204 327.308 315.087 328.067 315.412C328.825 315.737 331.483 309.492 332.233 309.817C332.983 310.142 333.296 309.437 334.054 309.762C334.812 310.087 332.729 315 333.492 315.325C334.254 315.65 335.717 312.192 336.479 312.517C337.242 312.842 335.392 317.196 336.154 317.517C336.917 317.837 340.821 308.646 341.571 308.971C342.321 309.296 341.308 311.704 342.071 312.029" stroke="black" stroke-width="8.32" stroke-linecap="round" stroke-linejoin="round"/>
<path d="M318.333 318.612C318.892 319.175 320.658 317.417 321.221 317.983C321.783 318.55 320.45 319.867 321.012 320.429C321.575 320.992 320.637 321.925 321.2 322.487C321.762 323.05 323.183 321.633 323.746 322.196C324.308 322.758 322.787 324.279 323.329 324.837C323.871 325.396 329.162 320.158 329.717 320.721C330.271 321.283 327.042 324.508 327.6 325.071C328.158 325.633 332.258 321.558 332.821 322.121C333.383 322.683 329.796 326.25 330.358 326.817C330.921 327.383 332.583 325.721 333.146 326.288C333.708 326.854 331.008 329.533 331.571 330.096C332.133 330.658 332.25 330.546 332.821 331.112C333.392 331.679 333.183 331.871 333.746 332.437" stroke="black" stroke-width="8.32" stroke-linecap="round" stroke-linejoin="round"/>
<path d="M316.708 324.642C317.383 324.958 317.667 324.013 318.475 324.388C318.892 324.571 319.167 325.158 319.662 325.388C320.158 325.617 319.912 327.242 320.375 327.471C320.837 327.7 321.658 327.108 322.1 327.3C322.542 327.492 323.079 327.717 323.487 327.904C324.217 328.208 324.971 330.175 325.117 330.175" stroke="black" stroke-width="8.32" stroke-linecap="round" stroke-linejoin="round"/>
<path d="M309.613 336.579C309.746 336.671 312.554 333.379 313.363 333.662C313.779 333.817 315.725 329.912 316.279 330.096C316.733 330.258 315.896 334.183 316.425 334.362C316.954 334.542 315.067 341.471 315.592 341.646C316.117 341.821 319.842 332.379 320.35 332.55C320.858 332.721 321.154 333.383 321.654 333.55C322.154 333.717 322.308 334.858 322.804 335.025C323.3 335.192 323.85 335.196 324.342 335.358C324.833 335.521 325.817 334.262 326.304 334.421C326.792 334.579 324.637 342.783 325.125 342.942C325.612 343.1 326.171 343.192 326.646 343.358C327.121 343.525 327.546 344.108 328.004 344.258C328.563 344.446 329.642 342.862 330.088 343.008C331.017 343.312 332.75 337.392 333.492 337.637" stroke="black" stroke-width="8.32" stroke-linecap="round" stroke-linejoin="round"/>
<path d="M340.254 265.204C341.087 265.204 340.879 258.275 341.704 258.254C342.529 258.233 342.563 259.392 343.371 259.367C344.179 259.342 344.242 260.967 345.067 260.946C345.892 260.925 346.054 266.583 346.879 266.558C347.704 266.533 347.425 256.796 348.25 256.771C349.075 256.746 349.175 260.221 350.004 260.2C350.833 260.179 350.683 255.067 351.508 255.042C352.333 255.017 352.5 260.633 353.333 260.612C354.167 260.592 354.192 261.617 355 261.596C355.808 261.575 355.858 262.825 356.687 262.8C357.517 262.775 357.575 264.883 358.4 264.883C359.225 264.883 359.258 265.987 360.067 265.962" stroke="black" stroke-width="8.32" stroke-linecap="round" stroke-linejoin="round"/>
<path d="M340.767 248.596C341.567 248.529 342.125 255.113 342.925 255.046C343.725 254.979 343.121 247.892 343.921 247.825C344.721 247.758 344.946 250.425 345.746 250.358C346.546 250.292 347.037 256.129 347.829 256.058C348.621 255.987 348.746 257.371 349.546 257.308C350.346 257.246 350.179 255.279 350.975 255.225C351.771 255.171 351.733 254.654 352.533 254.588C353.333 254.521 353.038 251.038 353.838 250.971C354.638 250.904 354.879 253.775 355.679 253.704C356.479 253.633 356.363 252.263 357.163 252.196C357.963 252.129 357.929 251.733 358.729 251.663" stroke="black" stroke-width="8.32" stroke-linecap="round" stroke-linejoin="round"/>
<path d="M343.129 247.546C343.912 247.475 343.546 243.229 344.325 243.162C345.104 243.096 345.021 242.125 345.808 242.054C346.596 241.983 346.05 235.837 346.837 235.767C347.625 235.696 347.892 238.758 348.675 238.683C349.458 238.608 350.308 248.212 351.096 248.142C351.883 248.071 351.642 245.337 352.425 245.267C353.208 245.196 352.425 236.275 353.208 236.208C353.992 236.142 354.004 236.233 354.792 236.162C355.579 236.092 356.537 246.962 357.321 246.896C358.104 246.829 357.763 242.925 358.55 242.854C359.338 242.783 359.483 244.479 360.271 244.408C361.058 244.337 360.333 236.121 361.104 236.05C361.875 235.979 362.237 239.908 363.025 239.842" stroke="black" stroke-width="8.32" stroke-linecap="round" stroke-linejoin="round"/>
<path d="M340.854 229.967C341.642 229.967 341.637 232.396 342.425 232.396C343.212 232.396 343.225 228.925 344.017 228.929C344.808 228.933 344.804 231.012 345.592 231.012C346.379 231.012 346.387 230.225 347.179 230.229C347.971 230.233 347.983 223.829 348.775 223.829C349.567 223.829 349.546 231.667 350.337 231.667C351.129 231.667 351.137 227.5 351.929 227.5C352.721 227.5 352.717 228.492 353.512 228.496C354.308 228.5 354.308 225.621 355.104 225.625" stroke="black" stroke-width="8.32" stroke-linecap="round" stroke-linejoin="round"/>
<path d="M343.942 232.329C344.775 232.329 344.775 231.633 345.575 231.633C346.375 231.633 346.408 229.833 347.217 229.837C348.025 229.842 348.021 234.696 348.837 234.7C349.654 234.704 349.671 228.004 350.504 228.008C351.337 228.012 351.337 230.629 352.133 230.629C352.929 230.629 352.942 234.292 353.758 234.292C354.575 234.292 354.562 240.271 355.379 240.275C356.196 240.279 356.212 234.858 357.046 234.858C357.879 234.858 357.879 229.858 358.712 229.858C359.546 229.858 359.546 230.712 360.346 230.717C361.146 230.721 361.142 239.758 361.958 239.758C362.775 239.758 362.792 236.367 363.604 236.367C364.417 236.367 364.437 230.417 365.271 230.417C366.104 230.417 366.104 230.625 366.913 230.629" stroke="black" stroke-width="8.32" stroke-linecap="round" stroke-linejoin="round"/>
<path d="M339.746 222.867C340.508 222.662 339.833 220.137 340.579 219.95C341.325 219.762 340.85 217.912 341.612 217.708C342.375 217.504 341.683 214.921 342.446 214.717C343.208 214.512 344.113 217.908 344.879 217.704C345.646 217.5 344.692 213.954 345.454 213.758C346.217 213.563 348.842 223.342 349.621 223.158C350.4 222.975 348.642 216.446 349.404 216.242C350.167 216.037 350.913 218.829 351.675 218.625C352.438 218.421 352.729 219.504 353.492 219.3C354.254 219.096 351.825 209.971 352.571 209.767C353.317 209.562 353.046 208.479 353.821 208.275C354.596 208.071 357.188 217.804 357.95 217.6C358.713 217.396 356.783 210.187 357.533 209.983C358.283 209.779 360.533 218.133 361.283 217.929" stroke="black" stroke-width="8.32" stroke-linecap="round" stroke-linejoin="round"/>
<path d="M341.808 233.967C342.588 233.75 341.129 228.437 341.913 228.225C342.696 228.012 343.688 231.637 344.471 231.425C345.254 231.212 344.508 228.508 345.304 228.287C346.1 228.067 347.967 234.954 348.75 234.721C349.533 234.487 348.938 232.354 349.721 232.142C350.504 231.929 349.829 229.467 350.608 229.254C351.388 229.042 350.108 224.358 350.888 224.146C351.667 223.933 353.7 231.325 354.479 231.112C355.258 230.9 354.7 228.85 355.483 228.637C356.267 228.425 357.079 231.387 357.863 231.171C358.646 230.954 356.288 222.367 357.067 222.154C357.846 221.942 357.738 221.533 358.521 221.321C359.304 221.108 359.988 223.596 360.767 223.404C361.546 223.212 359.625 216.171 360.408 215.954C361.192 215.737 362.908 222.083 363.712 221.867C364.517 221.65 362.942 215.996 363.712 215.779C364.483 215.562 365.379 218.829 366.175 218.617" stroke="black" stroke-width="8.32" stroke-linecap="round" stroke-linejoin="round"/>
<path d="M335.279 206.8C336.029 206.554 337.567 211.187 338.317 210.937C339.067 210.687 338.621 209.35 339.367 209.1C340.112 208.85 340.229 209.196 340.975 208.946C341.721 208.696 341.138 206.925 341.888 206.679C342.638 206.433 344.438 211.858 345.188 211.608C345.938 211.358 343.296 203.412 344.042 203.162C344.788 202.912 344.275 201.358 345.025 201.112C345.775 200.867 347.629 206.446 348.358 206.196C349.087 205.946 350.371 209.746 351.121 209.5C351.871 209.254 349.133 201.025 349.871 200.775C350.608 200.525 352.704 206.796 353.454 206.546C354.204 206.296 351.687 198.729 352.437 198.479" stroke="black" stroke-width="8.32" stroke-linecap="round" stroke-linejoin="round"/>
<path d="M331.733 198.308C332.462 197.946 330.808 194.642 331.537 194.279C332.267 193.917 333.096 195.579 333.825 195.217C334.554 194.854 334.462 194.675 335.192 194.312C335.921 193.95 334.358 190.8 335.071 190.437C335.783 190.075 338.404 195.254 339.121 194.892C339.837 194.529 342.537 199.892 343.287 199.533C344.037 199.175 340.833 192.846 341.558 192.5C342.283 192.154 342.721 193.008 343.446 192.642C344.171 192.275 345.754 195.433 346.483 195.067C347.212 194.7 343.804 187.9 344.533 187.533C345.262 187.167 347.804 192.254 348.533 191.887C349.262 191.521 349.45 191.887 350.179 191.533C350.908 191.179 348.812 186.979 349.542 186.612" stroke="black" stroke-width="8.32" stroke-linecap="round" stroke-linejoin="round"/>
<path d="M327.308 189.621C327.887 189.004 327.508 188.646 328.087 188.029C328.667 187.412 329.358 188.062 329.942 187.446C330.525 186.829 329.683 186.042 330.267 185.425C330.85 184.808 330.358 184.354 330.937 183.758C331.517 183.162 333.262 184.779 333.854 184.175C334.446 183.571 332.296 181.55 332.875 180.933C333.454 180.317 336.779 183.433 337.362 182.821C337.946 182.208 334.663 179.117 335.242 178.5C335.821 177.883 337.442 179.4 338.021 178.779" stroke="black" stroke-width="8.32" stroke-linecap="round" stroke-linejoin="round"/>
<path d="M320.467 181.667C321.204 181.342 318.529 175.217 319.267 174.896C320.004 174.575 322.6 180.508 323.342 180.183C324.083 179.858 325.167 182.346 325.904 182.025C326.642 181.704 320.754 168.221 321.496 167.917C322.238 167.612 327.875 180.504 328.612 180.183C329.35 179.862 328.471 177.846 329.208 177.521C329.946 177.196 329.85 176.971 330.587 176.65C331.325 176.329 326.838 166.008 327.558 165.683C328.279 165.358 335.087 180.904 335.825 180.583C336.562 180.262 330.504 166.379 331.242 166.054C331.979 165.729 334.837 172.271 335.575 171.95C336.312 171.629 332.658 163.304 333.421 162.983C334.183 162.662 333.742 161.696 334.479 161.375C335.217 161.054 335.346 161.342 336.087 161.017C336.829 160.692 337.15 161.433 337.887 161.112C338.625 160.792 339.058 161.771 339.796 161.446C340.533 161.121 345.308 172.046 346.046 171.725C346.783 171.404 344.083 165.212 344.821 164.892C345.558 164.571 346.904 167.654 347.654 167.329C348.404 167.004 346.308 162.225 347.05 161.912" stroke="black" stroke-width="8.32" stroke-linecap="round" stroke-linejoin="round"/>
<path d="M322.571 188.4C323.258 187.95 328.879 196.55 329.567 196.1C330.254 195.65 322.246 183.404 322.917 182.954C323.587 182.504 328.65 190.225 329.337 189.775C330.025 189.325 326.462 183.879 327.15 183.429C327.837 182.979 328.575 184.108 329.262 183.658C329.95 183.208 331.896 186.183 332.596 185.742C333.296 185.3 327.217 176.008 327.917 175.558C328.617 175.108 332.275 180.729 332.962 180.279C333.65 179.829 339.212 188.317 339.883 187.867C340.554 187.417 335.908 180.287 336.596 179.837C337.283 179.387 337.817 180.204 338.504 179.758C339.192 179.313 339.7 180.083 340.383 179.637C341.067 179.192 344.629 184.637 345.317 184.179C346.004 183.721 346.567 184.596 347.25 184.137C347.933 183.679 346 180.704 346.679 180.258C347.358 179.812 344.596 175.537 345.262 175.087C345.929 174.637 351.379 182.962 352.083 182.5C352.787 182.037 350.6 178.75 351.288 178.288C351.975 177.825 348.304 172.217 348.992 171.767C349.679 171.317 351.492 174.092 352.179 173.642C352.867 173.192 350.192 169.1 350.879 168.642C351.567 168.183 356.958 176.437 357.65 175.983C358.342 175.529 355.433 171.092 356.125 170.642" stroke="black" stroke-width="8.32" stroke-linecap="round" stroke-linejoin="round"/>
<path d="M316.667 163.854C317.254 163.321 316.792 162.812 317.379 162.279C317.967 161.746 320.996 165.083 321.583 164.554C322.171 164.025 319.854 161.471 320.442 160.937C321.029 160.404 325.35 165.162 325.937 164.629C326.525 164.096 325.971 163.487 326.558 162.962C327.146 162.437 327.067 162.342 327.654 161.813C328.242 161.283 327.196 160.125 327.783 159.596C328.371 159.067 329.542 160.35 330.129 159.817C330.717 159.283 327.796 156.067 328.383 155.529C328.971 154.992 331.458 157.737 332.046 157.196C332.633 156.654 332.242 156.229 332.829 155.696" stroke="black" stroke-width="8.32" stroke-linecap="round" stroke-linejoin="round"/>
<path d="M314.417 170.171C314.871 169.492 311.029 166.912 311.5 166.233C311.971 165.554 307.229 162.387 307.688 161.708C308.146 161.029 306.854 160.171 307.317 159.492C307.779 158.812 307.567 158.658 308.025 157.996C308.483 157.333 313.575 160.733 314.029 160.054C314.483 159.375 312.608 158.112 313.062 157.433C313.517 156.754 317.104 159.162 317.563 158.483C318.021 157.804 319.971 159.112 320.425 158.429C320.879 157.746 312.288 151.992 312.746 151.308C313.204 150.625 322.438 156.821 322.892 156.142C323.346 155.462 314.533 149.583 315 148.883C315.467 148.183 322.45 152.892 322.917 152.217C323.383 151.542 322.542 150.967 323 150.3C323.458 149.633 319.433 146.921 319.892 146.242C320.35 145.562 319.892 145.262 320.362 144.575" stroke="black" stroke-width="8.32" stroke-linecap="round" stroke-linejoin="round"/>
<path d="M295.792 154.446C296.296 153.829 295.829 153.446 296.333 152.829C296.837 152.212 300.537 155.233 301.042 154.617C301.546 154 303.612 155.687 304.117 155.071C304.621 154.454 304.117 154.033 304.612 153.404C305.108 152.775 307.679 154.879 308.183 154.262C308.688 153.646 301.3 147.596 301.804 146.996C302.308 146.396 307.2 150.375 307.704 149.754C308.208 149.133 307.983 148.954 308.492 148.337C309 147.721 312.546 150.617 313.05 150.004C313.554 149.392 309.3 145.896 309.787 145.279C310.275 144.662 313.237 147.067 313.742 146.45C314.246 145.833 310.225 142.55 310.729 141.929C311.233 141.308 311.883 141.842 312.396 141.225C312.908 140.608 316.646 143.662 317.15 143.046C317.654 142.429 310.333 136.458 310.833 135.833C311.333 135.208 312.571 136.217 313.075 135.6" stroke="black" stroke-width="8.32" stroke-linecap="round" stroke-linejoin="round"/>
<path d="M193.75 163.958C193.6 163.912 196.25 154.467 195.458 154.092C195.042 153.896 197 148.537 196.442 148.258C195.992 148.042 194.05 150.892 193.525 150.637C193 150.383 191.537 152.337 191.025 152.092C190.512 151.846 185.658 160.742 185.154 160.5C184.65 160.258 188.283 151.579 187.783 151.333C187.283 151.087 186.592 151.333 186.096 151.092C185.6 150.85 183.046 154.892 182.554 154.654C182.062 154.417 183.558 150.112 183.071 149.871C182.583 149.629 183.487 146.508 183.017 146.271C182.546 146.033 182.304 145.25 181.821 145.021C181.337 144.792 181.617 142.937 181.133 142.717C180.65 142.496 177.108 148.462 176.629 148.229C176.15 147.996 176.629 145.729 176.158 145.487C175.687 145.246 171.937 151.6 171.467 151.371C170.996 151.142 176.121 139.342 175.662 139.117C175.137 138.858 174.629 138.662 174.183 138.442C173.625 138.171 170.708 142.879 170.296 142.675C169.371 142.221 172.921 135.496 172.192 135.137" stroke="black" stroke-width="8.32" stroke-linecap="round" stroke-linejoin="round"/>
<path d="M181.733 162.812C181.029 162.425 184.371 156.321 183.667 155.937C182.962 155.554 183.313 154.912 182.608 154.525C181.904 154.137 176.75 163.554 176.046 163.171C175.342 162.787 174.275 164.733 173.571 164.35C172.867 163.967 172.571 164.5 171.867 164.117C171.163 163.733 171.725 162.708 171.033 162.321C170.342 161.933 169.737 163.012 169.033 162.625C168.329 162.237 167.187 164.325 166.483 163.942C165.779 163.558 172.696 150.917 171.992 150.529C171.287 150.142 166.342 159.167 165.642 158.775C164.942 158.383 169.246 150.512 168.558 150.129C167.871 149.746 166.812 151.646 166.108 151.262C165.404 150.879 164.75 152.067 164.046 151.679C163.342 151.292 157.558 161.867 156.854 161.479C156.15 161.092 164.238 146.308 163.521 145.925C162.804 145.542 155.229 159.404 154.525 159.017C153.821 158.629 157.442 151.975 156.758 151.592C156.075 151.208 156.517 150.342 155.813 149.971C155.108 149.6 148.783 161.142 148.075 160.754C147.367 160.367 154.292 147.725 153.587 147.337C152.883 146.95 148.475 155.004 147.754 154.617C147.033 154.229 152.717 143.875 152.012 143.487C151.308 143.1 148.317 148.571 147.608 148.183C146.9 147.796 141.671 157.35 140.942 156.971C140.213 156.592 148.504 141.479 147.796 141.092" stroke="black" stroke-width="8.32" stroke-linecap="round" stroke-linejoin="round"/>
<path d="M211.85 147.212C211.321 146.592 210.6 147.192 210.087 146.571C209.575 145.95 202.5 151.987 201.971 151.346C201.442 150.704 207.262 145.771 206.733 145.15C206.204 144.529 199.892 149.908 199.362 149.287C198.833 148.667 203.208 144.942 202.696 144.321C202.183 143.7 202.654 143.287 202.125 142.654C201.596 142.021 200.004 143.392 199.475 142.771C198.946 142.15 194.654 145.812 194.125 145.192C193.596 144.571 200.375 138.812 199.833 138.192C199.292 137.571 197.796 138.854 197.267 138.233C196.737 137.612 192.5 141.25 191.967 140.608C191.433 139.967 194 137.808 193.471 137.187C192.942 136.567 188.025 140.758 187.496 140.137C186.967 139.517 188.446 138.258 187.912 137.637C187.379 137.017 186.842 137.479 186.312 136.858C185.783 136.237 192.542 130.483 192.012 129.862C191.483 129.242 183.646 135.917 183.117 135.279C182.587 134.642 186.658 131.192 186.129 130.571C185.6 129.95 184.462 130.929 183.925 130.308C183.387 129.687 187.704 126.021 187.175 125.4C186.646 124.779 182.925 127.95 182.396 127.329C181.867 126.708 178.175 129.85 177.646 129.229C177.117 128.608 188.45 118.975 187.917 118.333C187.383 117.692 182.746 121.667 182.212 121.046" stroke="black" stroke-width="8.32" stroke-linecap="round" stroke-linejoin="round"/>
<path d="M164.167 177.688C163.333 177.55 161.612 187.575 160.804 187.433C159.996 187.292 161.75 177.196 160.937 177.058C160.125 176.921 156.25 199.292 155.417 199.167C154.583 199.042 158.208 178.296 157.396 178.154C156.583 178.012 156.296 179.7 155.483 179.558C154.671 179.417 151.583 197.204 150.775 197.083C149.967 196.962 151.446 188.417 150.633 188.275C149.821 188.133 149.775 188.404 148.967 188.275C148.158 188.146 150.262 176.004 149.45 175.862C148.637 175.721 146.604 187.446 145.792 187.304C144.979 187.162 147.65 171.821 146.837 171.679C146.025 171.537 145.954 171.962 145.142 171.825C144.329 171.687 141.392 188.596 140.583 188.454C139.775 188.313 139.175 191.746 138.367 191.604C137.558 191.462 138.308 187.083 137.5 186.946C136.692 186.808 138.854 174.337 138.046 174.196C137.237 174.054 137.658 171.629 136.846 171.487C136.033 171.346 133.929 183.433 133.125 183.292C132.321 183.15 130.796 191.904 129.983 191.762C129.171 191.621 129.15 191.808 128.317 191.671C127.483 191.533 130.596 173.733 129.787 173.592C128.979 173.45 126.342 188.592 125.529 188.467C124.717 188.342 128.396 167.162 127.583 167.021C126.771 166.879 124.792 178.271 123.979 178.146C123.167 178.021 125.387 165.229 124.579 165.083C123.771 164.938 120.125 185.983 119.312 185.833C118.5 185.683 121.208 170.104 120.4 169.962C119.592 169.821 117.225 183.425 116.413 183.296C115.6 183.167 118.233 167.992 117.421 167.85" stroke="black" stroke-width="8.32" stroke-linecap="round" stroke-linejoin="round"/>
<path d="M153.396 263.517C153.487 263.017 151.342 262.154 151.421 261.521C151.487 260.992 155.075 260.812 155.133 260.2C155.183 259.654 152.217 258.817 152.254 258.217C152.292 257.617 154.375 257.246 154.417 256.65C154.458 256.054 153.067 255.429 153.104 254.837C153.142 254.246 155.437 253.833 155.467 253.242C155.496 252.65 156.408 252.146 156.438 251.575C156.467 251.004 155.25 250.367 155.279 249.783C155.308 249.2 152.721 248.512 152.75 247.929C152.779 247.346 152.637 246.775 152.667 246.196C152.696 245.617 155.271 245.175 155.3 244.596C155.329 244.017 156.079 243.487 156.108 242.929C156.137 242.371 154.442 241.679 154.492 241.117C154.542 240.554 155.358 240.017 155.392 239.45C155.425 238.883 155.725 238.321 155.762 237.742C155.8 237.162 153.062 236.425 153.1 235.85C153.137 235.275 155.329 234.837 155.367 234.262C155.404 233.687 153.954 233.012 153.992 232.433C154.029 231.854 154.875 231.342 154.917 230.767C154.958 230.192 154.667 229.587 154.712 229.012C154.758 228.437 153.879 227.762 153.942 227.204C154.004 226.646 153.942 226.033 154.008 225.458C154.075 224.883 158.017 224.7 158.079 224.129C158.142 223.558 155.012 222.637 155.075 222.071C155.137 221.504 156.529 221.075 156.6 220.504C156.671 219.933 155.687 219.217 155.767 218.65C155.846 218.083 156.421 217.567 156.504 216.983C156.587 216.4 155.171 215.587 155.254 215.025C155.337 214.462 157.05 214.137 157.15 213.575C157.25 213.012 155.983 212.158 156.092 211.6C156.2 211.042 156.925 210.558 157.054 210.008C157.183 209.458 157.346 208.854 157.471 208.304C157.596 207.754 157.929 207.192 158.079 206.637C158.229 206.083 159.183 205.737 159.358 205.2C159.533 204.662 158.754 203.725 158.942 203.2C159.129 202.675 159.296 202.004 159.521 201.5C159.746 200.996 159.175 199.854 159.442 199.371C159.708 198.887 160.692 198.746 160.983 198.225C161.275 197.704 164.446 198.883 164.733 198.371C165.021 197.858 163.725 196.467 164.025 195.954C164.325 195.442 163.017 194.017 163.321 193.508C163.625 193 164.117 192.629 164.421 192.125C164.725 191.621 166.404 191.983 166.712 191.483C167.021 190.983 166.975 190.287 167.292 189.792C167.608 189.296 168.987 189.512 169.308 189.021C169.629 188.529 169.021 187.458 169.342 186.971C169.663 186.483 171.533 187.05 171.842 186.554C172.15 186.058 171.221 184.746 171.55 184.262C171.879 183.779 173.258 184.05 173.592 183.575C173.925 183.1 171.954 180.996 172.292 180.521C172.629 180.046 175.504 181.421 175.85 180.937C176.196 180.454 173.737 177.925 174.087 177.458C174.437 176.992 177.812 178.842 178.167 178.383C178.521 177.925 175.817 175.071 176.175 174.633C176.533 174.196 176.546 173.404 176.912 172.967C177.279 172.529 180.562 174.479 180.937 174.033C181.312 173.587 181.887 173.354 182.267 172.917C182.646 172.479 180.142 169.483 180.529 169.054C180.917 168.625 183.146 169.858 183.542 169.433C183.937 169.008 185 169.167 185.417 168.75C185.833 168.333 184.837 166.537 185.25 166.133C185.662 165.729 185.379 164.546 185.8 164.154C186.221 163.762 188.083 164.9 188.517 164.517C188.95 164.133 188.75 163 189.192 162.629C189.633 162.258 190.737 162.683 191.192 162.329C191.646 161.975 192.067 161.575 192.529 161.237C192.992 160.9 192.162 158.604 192.642 158.287C193.121 157.971 195.504 160.617 195.996 160.325C196.488 160.033 196.375 158.712 196.879 158.446C197.383 158.179 197.375 156.754 197.896 156.521C198.417 156.287 199.071 156.137 199.608 155.942C200.146 155.746 200.308 154.521 200.858 154.317C201.408 154.112 202.917 156.487 203.467 156.279C204.017 156.071 205.004 157.062 205.55 156.854C206.096 156.646 205.283 152.85 205.833 152.646C206.383 152.442 207.696 154.312 208.25 154.112C208.804 153.912 209.608 154.467 210.158 154.267C210.708 154.067 211.408 154.337 211.958 154.142C212.508 153.946 212.608 152.504 213.162 152.312C213.717 152.121 213.692 150.229 214.25 150.029C214.808 149.829 215.762 150.908 216.333 150.733C216.904 150.558 217.242 149.712 217.804 149.546C218.367 149.379 219.142 149.962 219.704 149.796C220.267 149.629 220.379 147.804 220.954 147.654C221.529 147.504 222.396 148.512 222.967 148.375C223.537 148.237 224.079 147.979 224.633 147.85C225.187 147.721 225.704 147.208 226.275 147.092C226.846 146.975 227.625 147.85 228.2 147.742C228.775 147.633 229.192 146.608 229.771 146.512C230.35 146.417 230.967 146.512 231.546 146.429C232.125 146.346 232.933 148.008 233.517 147.937C234.1 147.867 234.646 147.746 235.229 147.687C235.812 147.629 236.133 144.658 236.717 144.612C237.3 144.567 238.096 147.567 238.683 147.529C239.271 147.492 239.808 147.112 240.396 147.087C240.983 147.062 241.525 145.575 242.112 145.571C242.7 145.567 243.304 144.675 243.892 144.683C244.479 144.692 245.025 146.671 245.612 146.692C246.2 146.712 246.829 145.654 247.417 145.687C248.004 145.721 248.508 146.821 249.083 146.867C249.658 146.912 250.333 145.846 250.937 145.904C251.542 145.962 252.25 144.912 252.833 144.983C253.417 145.054 254.083 144.9 254.646 144.983C255.208 145.067 255.371 147.958 255.954 148.058C256.537 148.158 256.787 149.837 257.362 149.946C257.937 150.054 258.537 149.783 259.117 149.908C259.696 150.033 260.558 148.679 261.133 148.812C261.708 148.946 262.737 147.167 263.296 147.308C263.854 147.45 264.271 148.242 264.825 148.396C265.379 148.55 265.487 150.308 266.042 150.479C266.596 150.65 267.504 149.646 268.054 149.808C268.604 149.971 268.608 151.821 269.154 152.004C269.7 152.187 270.942 150.358 271.483 150.55C272.025 150.742 272.012 152.487 272.55 152.687C273.087 152.887 274.067 151.962 274.604 152.171C275.142 152.379 275.625 152.746 276.158 152.967C276.692 153.187 276.196 155.804 276.721 156.033C277.246 156.262 279.346 152.954 279.871 153.192C280.396 153.429 279.754 156.2 280.287 156.45C280.821 156.7 282.446 154.65 282.962 154.904C283.479 155.158 282.592 158.2 283.104 158.467C283.617 158.733 284.608 158.05 285.117 158.312C285.625 158.575 285.783 159.475 286.288 159.754C286.792 160.033 288.879 157.529 289.379 157.817C289.879 158.104 288.367 161.821 288.862 162.117C289.358 162.412 290.767 161.175 291.254 161.479C291.742 161.783 291.958 162.512 292.446 162.825C292.933 163.137 294.829 161.292 295.308 161.612C295.787 161.933 295.958 162.758 296.433 163.083C296.908 163.408 297.733 163.275 298.2 163.608C298.667 163.942 297.721 166.279 298.2 166.617C298.679 166.954 299.45 166.837 299.925 167.183C300.4 167.529 301.862 166.567 302.317 166.917C302.771 167.267 303.196 167.704 303.646 168.062C304.096 168.421 304.558 168.804 305.004 169.167C305.45 169.529 303.821 172.4 304.258 172.771C304.696 173.142 307.067 171.258 307.5 171.637C307.933 172.017 307.367 173.55 307.796 173.929C308.225 174.308 307.954 175.462 308.375 175.85C308.796 176.237 309.396 176.429 309.812 176.821C310.229 177.212 311.733 176.487 312.146 176.887C312.558 177.287 313.579 177.104 313.983 177.508C314.387 177.912 315.162 178.008 315.562 178.417C315.962 178.825 315.275 180.317 315.667 180.733C316.058 181.15 317.525 180.612 317.908 181.033C318.292 181.454 317.537 182.95 317.908 183.375C318.279 183.8 318.275 184.596 318.642 185.042C319.008 185.487 320.933 184.65 321.296 185.087C321.658 185.525 322.45 185.692 322.804 186.133C323.158 186.575 321.85 188.387 322.192 188.833C322.533 189.279 321.775 190.592 322.104 191.042C322.433 191.492 324.375 190.842 324.696 191.3C325.017 191.758 323.233 193.696 323.542 194.158C323.85 194.621 325.071 194.521 325.362 194.992C325.654 195.462 325.975 195.962 326.242 196.437C326.546 196.975 328.958 196.371 329.196 196.854C329.479 197.429 330.196 197.921 330.379 198.392C330.562 198.862 326.908 200.942 327.133 201.517C327.358 202.092 330.696 201.362 330.912 201.933C331.129 202.504 331.608 202.908 331.821 203.475C332.033 204.042 331.433 204.85 331.633 205.417C331.833 205.983 332.962 206.192 333.154 206.758C333.346 207.325 331.929 208.387 332.112 208.958C332.296 209.529 330.992 210.5 331.167 211.071C331.342 211.642 332.279 211.904 332.442 212.5C332.604 213.096 335.458 212.879 335.612 213.454C335.767 214.029 334.492 214.954 334.633 215.537C334.775 216.121 336.271 216.371 336.404 216.937C336.537 217.504 333.446 218.775 333.571 219.358C333.696 219.942 333.571 220.512 333.675 221.096C333.779 221.679 334.817 222.042 334.925 222.621C335.033 223.2 337.204 223.417 337.296 224C337.387 224.583 333.892 225.687 333.962 226.271C334.033 226.854 334.796 227.296 334.887 227.883C334.979 228.471 338.496 228.612 338.562 229.2C338.629 229.787 334.679 230.779 334.737 231.367C334.796 231.954 334.667 232.508 334.717 233.1C334.767 233.692 337.85 234.004 337.896 234.596C337.942 235.187 334.862 235.946 334.896 236.533C334.929 237.121 337.683 237.537 337.708 238.129C337.733 238.721 337.962 239.287 337.983 239.875C338.004 240.462 338.575 241.033 338.587 241.621C338.6 242.208 338.875 242.792 338.879 243.383C338.883 243.975 339.612 244.562 339.612 245.15C339.612 245.737 335.612 246.279 335.604 246.871C335.596 247.462 337.379 248.054 337.362 248.642C337.346 249.229 338.792 249.854 338.771 250.442C338.75 251.029 338.742 251.617 338.717 252.208C338.692 252.8 334.867 253.171 334.833 253.758C334.8 254.346 339.054 255.179 339 255.767C338.946 256.354 337.992 256.875 337.946 257.458C337.9 258.042 337.054 258.558 337.004 259.125C336.954 259.692 338.842 260.467 338.788 261.054C338.733 261.642 335.229 261.887 335.171 262.462C335.112 263.037 337.642 263.896 337.579 264.479C337.517 265.062 335.696 265.442 335.625 266.025C335.554 266.608 333.85 266.967 333.775 267.554" stroke="black" stroke-width="8.48" stroke-linecap="round" stroke-linejoin="round"/>
<path d="M156.192 277.029C156.158 276.454 159.858 275.667 159.825 275.083C159.792 274.5 157.483 274.054 157.454 273.475C157.425 272.896 159 272.225 158.971 271.662C158.942 271.1 159.912 270.462 159.887 269.883C159.862 269.304 156.408 268.883 156.383 268.304C156.358 267.725 158.883 267.054 158.883 266.462C158.883 265.871 158.712 265.312 158.692 264.733C158.671 264.154 159.075 263.567 159.054 262.987C159.033 262.408 156.329 261.912 156.312 261.321C156.296 260.729 159.112 260.071 159.096 259.508C159.079 258.946 156.908 258.404 156.896 257.842C156.883 257.279 156.737 256.683 156.729 256.104C156.721 255.525 156.425 254.946 156.417 254.367C156.408 253.787 156.637 253.2 156.633 252.621C156.629 252.042 157.596 251.454 157.596 250.879C157.596 250.304 156.787 249.717 156.787 249.137C156.787 248.558 156.262 247.975 156.267 247.396C156.271 246.817 155.7 246.221 155.708 245.646C155.717 245.071 156.512 244.488 156.542 243.913C156.571 243.338 158.979 242.804 158.992 242.246C159.004 241.688 155.387 240.996 155.404 240.404C155.421 239.812 158.75 239.333 158.75 238.75C158.75 238.167 158.858 237.6 158.887 237.025C158.917 236.45 159.304 235.896 159.346 235.321C159.387 234.746 156.046 233.962 156.083 233.387C156.121 232.812 156.608 232.246 156.646 231.671C156.683 231.096 158.858 230.675 158.904 230.1C158.95 229.525 158.283 228.883 158.333 228.313C158.383 227.742 158.604 227.175 158.662 226.604C158.721 226.033 158.3 225.396 158.367 224.825C158.433 224.254 157.462 223.529 157.533 222.962C157.604 222.396 157.754 221.8 157.837 221.233C157.921 220.667 160.608 220.487 160.7 219.925C160.792 219.362 158.975 218.45 159.079 217.887C159.183 217.325 160.925 217.054 161.042 216.512C161.158 215.971 158.779 214.817 158.908 214.262C159.037 213.708 160.925 213.55 161.071 213.013C161.217 212.475 160.875 211.762 161.037 211.208C161.2 210.654 159.821 209.542 160.004 209.021C160.187 208.5 163.812 209.183 164.021 208.658C164.229 208.133 161.837 206.483 162.071 205.975C162.304 205.467 164.108 205.692 164.383 205.204C164.658 204.717 165.667 204.621 165.958 204.1C166.25 203.579 164.417 201.904 164.708 201.387C165 200.871 164.804 200.104 165.104 199.592C165.404 199.079 168.65 200.358 168.954 199.85C169.258 199.342 167.1 197.387 167.404 196.883C167.708 196.379 167.787 195.75 168.1 195.25C168.412 194.75 171.079 195.762 171.392 195.25C171.704 194.737 169.354 192.571 169.675 192.079C169.996 191.587 172.937 192.833 173.258 192.342C173.579 191.85 170.929 189.392 171.258 188.904C171.587 188.417 171.675 187.771 172.021 187.292C172.367 186.812 174.129 187.333 174.467 186.875C174.804 186.417 173.829 184.975 174.171 184.504C174.512 184.033 174.879 183.554 175.225 183.083C175.571 182.612 176.542 182.596 176.892 182.129C177.242 181.662 178.458 181.862 178.817 181.404C179.175 180.946 178.4 179.558 178.75 179.104C179.1 178.65 179.854 178.475 180.225 178.029C180.596 177.583 183.017 178.862 183.396 178.425C183.775 177.987 184.587 177.962 184.971 177.529C185.354 177.096 185.304 176.304 185.696 175.862C186.087 175.421 186.112 174.704 186.529 174.287C186.946 173.871 186.487 172.621 186.9 172.204C187.312 171.787 187.875 171.533 188.292 171.133C188.708 170.733 189.196 170.396 189.625 170.012C190.054 169.629 191.129 170.012 191.571 169.621C192.012 169.229 191.312 167.479 191.762 167.121C192.212 166.762 192.621 166.287 193.087 165.937C193.554 165.587 195.487 167.371 195.967 167.05C196.446 166.729 196.012 165.033 196.504 164.737C196.996 164.442 198.233 165.525 198.742 165.254C199.25 164.983 199.625 164.646 200.15 164.421C200.675 164.196 199.987 160.967 200.525 160.767C201.062 160.567 202.117 161.725 202.671 161.521C203.225 161.317 204.1 162.012 204.65 161.804C205.2 161.596 205.95 161.962 206.5 161.754C207.05 161.546 207.75 161.821 208.312 161.617C208.875 161.412 208.779 159.533 209.329 159.337C209.879 159.142 210.787 159.95 211.337 159.754C211.887 159.558 211.708 157.321 212.262 157.125C212.817 156.929 213.096 155.908 213.646 155.721C214.196 155.533 215.283 156.933 215.842 156.75C216.4 156.567 217.387 157.787 217.946 157.612C218.504 157.437 218.087 154.046 218.654 153.862C219.221 153.679 219.992 154.208 220.554 154.05C221.117 153.892 222.087 155.229 222.637 155.083C223.187 154.937 224.179 156.525 224.75 156.387C225.321 156.25 225.721 155.554 226.292 155.425C226.862 155.296 226.708 151.754 227.296 151.637C227.883 151.521 228.896 153.721 229.475 153.625C230.054 153.529 230.758 154.329 231.338 154.242C231.917 154.154 232.475 154.137 233.058 154.062C233.642 153.987 233.892 151.146 234.463 151.092C235.033 151.037 235.958 154.383 236.546 154.333C237.133 154.283 237.496 151.658 238.083 151.621C238.671 151.583 239.208 150.296 239.796 150.271C240.383 150.246 241.046 153.075 241.642 153.067C242.237 153.058 242.792 151.496 243.383 151.5C243.975 151.504 244.6 150.125 245.187 150.142C245.775 150.158 246.337 151.354 246.925 151.392C247.512 151.429 248.142 151.008 248.729 151.05C249.317 151.092 249.942 150.938 250.529 150.996C251.117 151.054 251.671 151.542 252.254 151.612C252.837 151.683 252.954 155.087 253.533 155.171C254.112 155.254 255.346 151.104 255.925 151.204C256.504 151.304 256.758 153.237 257.35 153.35C257.942 153.462 258.567 153.233 259.146 153.35C259.725 153.467 260.646 152.1 261.229 152.229C261.812 152.358 262.396 152.462 262.95 152.6C263.504 152.737 263.546 154.925 264.096 155.079C264.646 155.233 264.967 156.183 265.512 156.329C266.058 156.475 267.425 154.033 267.971 154.204C268.517 154.375 268.163 157.354 268.704 157.537C269.246 157.721 270.308 156.408 270.846 156.6C271.383 156.792 271.158 159.062 271.679 159.267C272.2 159.471 272.967 159.054 273.5 159.267C274.033 159.479 275.413 157.621 275.938 157.842C276.463 158.062 276.996 158.346 277.521 158.575C278.046 158.804 278.55 159.133 279.071 159.371C279.592 159.608 279.358 161.454 279.875 161.717C280.392 161.979 280.546 162.917 281.058 163.171C281.571 163.425 283.05 161.783 283.558 162.046C284.067 162.308 284.233 163.242 284.733 163.517C285.233 163.792 285.567 164.396 286.054 164.679C286.542 164.962 287.792 163.962 288.288 164.262C288.783 164.562 289.771 164.062 290.258 164.358C290.746 164.654 290.304 166.5 290.792 166.804C291.279 167.108 292.904 165.662 293.383 165.971C293.862 166.279 294.029 167.129 294.504 167.45C294.979 167.771 295.529 168.029 296 168.354C296.471 168.679 296.637 169.483 297.1 169.817C297.562 170.15 297.175 171.679 297.638 172.017C298.1 172.354 297.413 174.2 297.867 174.546C298.321 174.892 300.879 172.517 301.329 172.879C301.779 173.242 302.163 173.712 302.604 174.067C303.046 174.421 303.083 175.317 303.521 175.679C303.958 176.042 303.404 177.596 303.838 177.962C304.271 178.329 305.504 177.8 305.921 178.179C306.338 178.558 307.95 177.658 308.371 178.042C308.792 178.425 309.438 178.629 309.854 179.017C310.271 179.404 310.146 180.417 310.558 180.812C310.971 181.208 310.529 182.508 310.929 182.896C311.329 183.283 310.096 185.342 310.479 185.746C310.863 186.15 311.538 186.287 311.925 186.7C312.313 187.112 312.808 187.417 313.175 187.833C313.542 188.25 314.458 188.2 314.842 188.621C315.225 189.042 314.925 190.054 315.292 190.483C315.658 190.912 316.679 190.792 317.038 191.225C317.396 191.658 320.304 190.062 320.654 190.5C321.004 190.937 321.15 191.633 321.488 192.079C321.825 192.525 319.404 195.112 319.733 195.562C320.062 196.012 322.888 194.729 323.204 195.175C323.521 195.621 323.275 196.579 323.579 197.037C323.883 197.496 325.396 197.317 325.663 197.779C325.929 198.242 324.746 199.75 325.013 200.217C325.317 200.754 325.587 201.279 325.821 201.75C326.104 202.325 327.533 202.417 327.713 202.883C327.892 203.35 326.621 204.487 326.821 205.062C327 205.575 327.133 206.133 327.317 206.708C327.5 207.283 329.633 207.196 329.817 207.775C330 208.354 329.646 209.025 329.817 209.604C329.988 210.183 327.796 211.3 327.937 211.875C328.079 212.45 328.354 212.917 328.508 213.492C328.662 214.067 329.371 214.454 329.492 215.029C329.613 215.604 331.937 215.708 332.05 216.279C332.162 216.85 331.762 217.529 331.867 218.096C331.971 218.662 331.258 219.346 331.354 219.946C331.45 220.546 332.529 220.933 332.604 221.508C332.679 222.083 330.025 223.033 330.104 223.592C330.183 224.15 332.867 224.383 332.937 224.967C333.008 225.55 330.696 226.379 330.758 226.958C330.821 227.538 332.271 227.946 332.325 228.525C332.379 229.104 330.242 229.858 330.292 230.437C330.342 231.017 330.708 231.529 330.75 232.104C330.792 232.679 331.238 233.204 331.275 233.771C331.313 234.337 330.442 234.95 330.442 235.529C330.442 236.108 334.375 236.475 334.4 237.054C334.425 237.633 330.546 238.358 330.567 238.938C330.587 239.517 331.346 240.042 331.358 240.604C331.371 241.167 331.904 241.729 331.913 242.308C331.921 242.887 333.342 243.429 333.346 244.012C333.35 244.596 330.238 245.167 330.238 245.746C330.238 246.325 330.317 246.875 330.313 247.454C330.308 248.033 333.329 248.621 333.321 249.2C333.312 249.779 331.079 250.304 331.067 250.867C331.054 251.429 332.317 252.038 332.317 252.617C332.317 253.196 330.263 253.683 330.233 254.283C330.204 254.883 332.192 255.496 332.167 256.075C332.142 256.654 331.479 257.187 331.45 257.762C331.421 258.337 332.004 258.938 331.971 259.513C331.937 260.088 330.679 260.575 330.642 261.154C330.604 261.733 330.917 262.312 330.875 262.892C330.833 263.471 331.933 264.112 331.888 264.687C331.842 265.262 332.863 265.938 332.817 266.496C332.771 267.054 333.133 267.679 333.083 268.258C333.033 268.837 329.842 269.112 329.787 269.687C329.733 270.262 333.358 271.187 333.3 271.771C333.242 272.354 331.829 272.779 331.767 273.354C331.704 273.929 330.758 274.4 330.696 274.975C330.633 275.55 328.996 275.929 328.929 276.508C328.863 277.087 328.929 277.654 328.875 278.229" stroke="black" stroke-width="8.48" stroke-linecap="round" stroke-linejoin="round"/>
<path d="M274 352.954C268.812 355.663 261.5 357.717 251.371 358.6C240.454 359.55 232.204 358.55 226.1 356.4C205.2 349.033 209.529 328.221 218.642 326.325C230.308 323.904 235.954 335.654 247.721 333.208C259.488 330.763 270.658 320.888 277.467 322.142C282.85 323.133 293.596 342.713 274 352.954Z" fill="black" stroke="black" stroke-width="5" stroke-linecap="round" stroke-linejoin="round"/>
<path d="M274 352.954C268.812 355.663 261.5 357.717 251.371 358.6C240.454 359.55 232.204 358.55 226.1 356.4C230.55 348.792 240 343.654 248.333 343.117C256.121 342.617 268.721 347.375 274 352.954Z" fill="#F2F2F2" stroke="black" stroke-width="5" stroke-linecap="round" stroke-linejoin="round"/>
</g>
<defs>
<clipPath id="clip0_427_290">
<rect width="500" height="500" fill="white"/>
</clipPath>
</defs>
</svg>
