<svg width="500" height="500" viewBox="0 0 500 500" fill="none" xmlns="http://www.w3.org/2000/svg">
<g clip-path="url(#clip0_427_404)">
<path d="M457.058 500H42.9417C42.94 499.975 42.94 499.95 42.9417 499.925C43.5625 497.842 57.4542 451.517 63.0792 447.008C68.8375 442.4 182.3 400.342 182.3 400.342H317.679C317.679 400.342 431.142 442.383 436.9 447.008C442.529 451.517 456.417 497.842 457.038 499.925C457.05 499.975 457.058 500 457.058 500Z" fill="#F2F2F2" stroke="black" stroke-width="5" stroke-linecap="round" stroke-linejoin="round"/>
<path d="M419.925 500C421.717 495.363 425.9 486.425 429.413 479.838" stroke="black" stroke-width="5" stroke-linecap="round" stroke-linejoin="round"/>
<path d="M266.158 411.3C265.208 404.983 264.688 400.358 264.688 400.358H237.604C237.604 400.358 236.863 404.983 235.775 411.3" stroke="black" stroke-width="5" stroke-linecap="round" stroke-linejoin="round"/>
<path d="M264.688 400.358C264.688 400.358 258.642 428.579 250.867 428.579C243.092 428.579 237.617 400.358 237.617 400.358H264.688Z" fill="#44C6AC" stroke="black" stroke-width="5" stroke-linecap="round" stroke-linejoin="round"/>
<path d="M269.167 500H236.4C236.4 499.975 236.4 499.954 236.4 499.925C238.483 467.008 242.508 428.579 250.854 428.579C257.875 428.579 264.446 466.883 269.163 499.925C269.166 499.95 269.167 499.975 269.167 500V500Z" fill="#44C6AC" stroke="black" stroke-width="5" stroke-linecap="round" stroke-linejoin="round"/>
<path d="M209.017 393.446H206.517C197.929 393.446 205.292 386.029 207.667 383.654C209.396 381.929 209.396 381.35 201.333 382.504C193.271 383.658 182.325 400.358 182.325 400.358C179.667 402.079 220.912 438.133 225.521 437.221C227.121 436.904 239.633 400.646 239.633 400.646C239.633 400.646 263.25 400.071 263.825 400.646C264.4 401.221 269.942 437.221 275.075 437.221C282.575 437.221 317.696 400.358 317.696 400.358C317.696 400.358 306.179 385.958 303.3 383.079C300.421 380.2 298.692 380.2 294.083 381.35C296.962 386.533 305.6 393.433 298.112 393.433H208.821" fill="#F2F2F2"/>
<path d="M209.017 393.446H206.517C197.929 393.446 205.292 386.029 207.667 383.654C209.396 381.929 209.396 381.35 201.333 382.504C193.271 383.658 182.325 400.358 182.325 400.358C179.667 402.079 220.912 438.133 225.521 437.221C227.121 436.904 239.633 400.646 239.633 400.646C239.633 400.646 263.25 400.071 263.825 400.646C264.4 401.221 269.942 437.221 275.075 437.221C282.575 437.221 317.696 400.358 317.696 400.358C317.696 400.358 306.179 385.958 303.3 383.079C300.421 380.2 298.692 380.2 294.083 381.35C296.962 386.533 305.6 393.433 298.112 393.433H208.821" stroke="black" stroke-width="5" stroke-linecap="round" stroke-linejoin="round"/>
<path d="M64.2542 479.838C67.7667 486.425 71.9459 495.363 73.7375 500" stroke="black" stroke-width="5" stroke-linecap="round" stroke-linejoin="round"/>
<path d="M299.821 390C301.404 392.442 296.542 393.992 294.438 393.146C293.683 391.596 293.488 384.238 294.638 384.238C295.788 384.238 298.567 386.908 299.821 390Z" fill="black"/>
<path d="M203.133 390C201.55 392.442 206.408 393.992 208.517 393.146C209.271 391.596 209.467 384.238 208.317 384.238C207.167 384.238 204.388 386.908 203.133 390Z" fill="black"/>
<path d="M179.583 246.388C179.583 246.388 151.179 242.525 151.179 270.75C151.179 298.975 182.325 297.342 182.325 297.342L179.583 246.388Z" fill="#F2F2F2" stroke="black" stroke-width="5" stroke-linecap="round" stroke-linejoin="round"/>
<path d="M323.621 246.388C323.621 246.388 351.504 242.525 351.504 270.75C351.504 298.975 322.471 297.342 322.471 297.342L323.621 246.388Z" fill="#F2F2F2" stroke="black" stroke-width="5" stroke-linecap="round" stroke-linejoin="round"/>
<path d="M293.683 362.5V393.429H209.017V362.346H212.729C226.929 368.471 243.563 373 254.742 373C266.392 373 280.958 368.871 293.683 362.5Z" fill="#F2F2F2" stroke="black" stroke-width="5" stroke-linecap="round" stroke-linejoin="round"/>
<path d="M325.713 236.038C325.713 236.704 325.342 272.146 324.554 289.004C323.25 316.954 320.625 341.45 315.604 347.083C310.15 352.854 302.346 358.196 293.683 362.5C280.958 368.854 266.392 372.983 254.742 372.983C243.554 372.983 226.929 368.454 212.729 362.329C202.083 357.75 192.783 352.25 188.183 347.083C180.083 337.992 178.079 237.304 178.079 237.296C178.079 237.288 175.7 186.963 213.717 163.925C251.733 140.888 290.317 157.013 306.446 177.75C322.575 198.488 325.713 236.038 325.713 236.038Z" fill="#F2F2F2" stroke="black" stroke-width="5" stroke-linecap="round" stroke-linejoin="round"/>
<path d="M216.729 322.317C241.304 339.817 265.879 339.817 290.454 322.317Z" fill="#F2F2F2"/>
<path d="M216.729 322.317C241.304 339.817 265.879 339.817 290.454 322.317" stroke="black" stroke-width="5" stroke-linecap="round" stroke-linejoin="round"/>
<path d="M249.879 295.246C269.421 295.246 269.421 271.629 249.879 271.629Z" fill="#F2F2F2"/>
<path d="M249.879 295.246C269.421 295.246 269.421 271.629 249.879 271.629" stroke="black" stroke-width="5" stroke-linecap="round" stroke-linejoin="round"/>
<path d="M272.596 251.471C272.596 241.588 297.942 241.588 297.942 251.471Z" fill="#F2F2F2"/>
<path d="M272.596 251.471C272.596 241.588 297.942 241.588 297.942 251.471" stroke="black" stroke-width="5" stroke-linecap="round" stroke-linejoin="round"/>
<path d="M200.604 251.471C200.604 241.588 225.946 241.588 225.946 251.471Z" fill="#F2F2F2"/>
<path d="M200.604 251.471C200.604 241.588 225.946 241.588 225.946 251.471" stroke="black" stroke-width="5" stroke-linecap="round" stroke-linejoin="round"/>
<path d="M192.5 233.246C196.35 223.179 231.133 222.675 234.058 233.246Z" fill="#F2F2F2"/>
<path d="M192.5 233.246C196.35 223.179 231.133 222.675 234.058 233.246" stroke="black" stroke-width="5" stroke-linecap="round" stroke-linejoin="round"/>
<path d="M306.05 233.246C302.196 223.179 267.413 222.675 264.488 233.246Z" fill="#F2F2F2"/>
<path d="M306.05 233.246C302.196 223.179 267.413 222.675 264.488 233.246" stroke="black" stroke-width="5" stroke-linecap="round" stroke-linejoin="round"/>
<path d="M291.25 301.154L302.058 307.767" stroke="black" stroke-width="5" stroke-linecap="round" stroke-linejoin="round"/>
<path d="M209.242 304.463L203.483 311.95" stroke="black" stroke-width="5" stroke-linecap="round" stroke-linejoin="round"/>
<path d="M325.588 237.65C325.588 237.65 331.921 157.592 333.65 146.071C335.379 134.55 327.313 124.183 321.567 124.763C315.821 125.342 311.2 125.913 306.017 124.183C300.833 122.454 295.071 108.058 293.933 108.633C292.796 109.208 284.717 116.133 282.413 112.088C280.108 108.042 274.217 94.2333 270.183 96.5375C266.15 98.8417 259.95 109.788 251.888 102.3C243.825 94.8125 242.671 104.6 238.642 106.883C234.613 109.167 231.142 105.733 224.242 99.975C217.342 94.2167 200.629 127.621 200.629 127.621C200.629 127.621 193.129 119.554 189.108 118.404C185.088 117.254 175.833 153.558 175.833 153.558C175.833 153.558 168.921 139.738 166.617 148.375C164.313 157.013 178.138 237.65 178.138 237.65C178.138 237.65 184.471 175.446 206.933 173.142C229.396 170.838 240.342 207.7 251.15 207.7C261.958 207.7 275.475 173.142 295.054 174.292C314.633 175.442 325.588 237.65 325.588 237.65Z" fill="black" stroke="black" stroke-width="5" stroke-linecap="round" stroke-linejoin="round"/>
<path d="M313.833 157.408C314.729 170.867 315.083 186.963 314.817 200.446" stroke="#F2F2F2" stroke-width="2" stroke-linecap="round" stroke-linejoin="round"/>
<path d="M292.021 135.288L296.083 174.396" stroke="#F2F2F2" stroke-width="2" stroke-linecap="round" stroke-linejoin="round"/>
<path d="M271.892 159.029C272.672 168.313 273.063 177.618 273.063 186.946" stroke="#F2F2F2" stroke-width="2" stroke-linecap="round" stroke-linejoin="round"/>
<path d="M248.15 153.05C251.358 170.113 251.9 192.763 253.1 210.083" stroke="#F2F2F2" stroke-width="2" stroke-linecap="round" stroke-linejoin="round"/>
<path d="M230.796 163.504C230.467 171.317 230.329 182.483 230.704 190.292" stroke="#F2F2F2" stroke-width="2" stroke-linecap="round" stroke-linejoin="round"/>
<path d="M213.254 141.071C212.754 149.529 214.175 168.329 215.079 176.75" stroke="#F2F2F2" stroke-width="2" stroke-linecap="round" stroke-linejoin="round"/>
<path d="M187.967 149.062C189.079 161.183 191 176.675 192.683 188.729" stroke="#F2F2F2" stroke-width="2" stroke-linecap="round" stroke-linejoin="round"/>
<path d="M177.5 181.15C178.913 191.646 181.383 211.567 182.8 222.063" stroke="#F2F2F2" stroke-width="2" stroke-linecap="round" stroke-linejoin="round"/>
<path d="M187.996 118.417C187.996 118.417 192.683 132.479 194.246 144.979" stroke="#F2F2F2" stroke-width="2" stroke-linecap="round" stroke-linejoin="round"/>
<path d="M175.496 144.979L182.788 176.75" stroke="#F2F2F2" stroke-width="2" stroke-linecap="round" stroke-linejoin="round"/>
<path d="M222.892 97.5833C220.808 102.792 222.371 144.458 222.892 152.792" stroke="#F2F2F2" stroke-width="2" stroke-linecap="round" stroke-linejoin="round"/>
<path d="M237.475 100.708C237.475 107.479 237.733 158.779 238.775 165.029" stroke="#F2F2F2" stroke-width="2" stroke-linecap="round" stroke-linejoin="round"/>
<path d="M258.829 100.708C258.829 109.042 260.65 162.946 260.129 168.675" stroke="#F2F2F2" stroke-width="2" stroke-linecap="round" stroke-linejoin="round"/>
<path d="M285.392 108C283.308 115.292 283.308 160.604 283.829 162.688" stroke="#F2F2F2" stroke-width="2" stroke-linecap="round" stroke-linejoin="round"/>
<path d="M306.225 115.833C307.267 130.417 305.962 162.446 305.442 168.696" stroke="#F2F2F2" stroke-width="2" stroke-linecap="round" stroke-linejoin="round"/>
<path d="M333.829 125.188C333.308 138.729 326.538 177.792 327.058 183" stroke="#F2F2F2" stroke-width="2" stroke-linecap="round" stroke-linejoin="round"/>
<path d="M327.058 195.5C327.058 205.917 325.929 232.821 325.713 236.037" stroke="#F2F2F2" stroke-width="2" stroke-linecap="round" stroke-linejoin="round"/>
</g>
<defs>
<clipPath id="clip0_427_404">
<rect width="500" height="500" fill="white"/>
</clipPath>
</defs>
</svg>
