<svg width="500" height="500" viewBox="0 0 500 500" fill="none" xmlns="http://www.w3.org/2000/svg">
<g clip-path="url(#clip0_427_450)">
<path d="M279.808 385.158V371.096H212.621V496.096H279.808V385.158Z" fill="#F2F2F2" stroke="black" stroke-width="5" stroke-linecap="round" stroke-linejoin="round"/>
<path d="M451.013 500H48.9875C54.1959 481.137 69.025 432.917 86.325 425.258C107.817 415.783 200.254 388.917 201.158 388.65L211.054 385.675L210.679 386.654C210.629 386.792 210.571 386.942 210.504 387.117C209.888 388.712 208.592 392.087 205.846 399.2C205.846 399.229 205.825 399.254 205.821 399.279C205.754 399.442 205.696 399.608 205.646 399.771C204.342 403.654 204.958 407.65 206.596 411.467C207.381 413.251 208.327 414.961 209.421 416.575C210.407 418.051 211.474 419.471 212.617 420.829C215.315 423.97 218.24 426.91 221.367 429.625C221.558 429.8 221.746 429.967 221.929 430.125C221.929 430.125 221.929 430.125 221.963 430.15L224.079 432.008C224.411 432.3 224.721 432.615 225.008 432.95V432.95C225.037 432.976 225.062 433.006 225.083 433.038C226.682 435.01 227.821 437.315 228.417 439.783C228.415 439.806 228.415 439.828 228.417 439.85C228.853 441.539 229.091 443.273 229.125 445.017C229.197 446.97 228.889 448.918 228.221 450.754C227.379 453.221 226.995 455.82 227.088 458.425V458.517C227.192 465.142 229.396 471.879 230.367 474.55C230.364 474.564 230.364 474.578 230.367 474.592C230.638 475.333 230.808 475.754 230.808 475.754L244.783 490.246L244.871 490.338L246.05 484.438C246.171 483.863 246.296 483.221 246.433 482.521C246.725 482.171 246.992 481.817 247.242 481.45C253.204 472.825 248.7 461.104 248.525 460.662L256.858 437.746L256.908 437.7L268.958 426.867L272.483 423.696C275.096 422.492 277.538 420.467 279.775 417.987C280.354 417.35 280.917 416.683 281.463 415.996C282.631 414.517 283.723 412.979 284.733 411.387C291.25 401.25 295.129 389.167 295.129 389.167C295.129 389.167 420.163 418.908 429.025 429.438C436.054 437.783 446.85 482.083 451.013 500Z" fill="#44C6AC" stroke="black" stroke-width="5" stroke-linecap="round" stroke-linejoin="round"/>
<path d="M267.213 427.962C271.996 423.175 277.725 434.117 276.163 437.758C274.6 441.4 271.821 448.7 271.821 448.7C271.821 448.7 293.871 432.033 294.913 426.825C295.954 421.617 297.517 406.508 297.517 392.45C297.517 392.45 295.85 385.158 279.763 385.158C286.108 388.283 288.838 402.554 286.146 408.7C283.454 414.846 267.213 427.962 267.213 427.962Z" fill="#44C6AC" stroke="black" stroke-width="5" stroke-linecap="round" stroke-linejoin="round"/>
<path d="M225.121 433.075C217.308 431.508 213.871 443.392 215.225 447.658C216.579 451.925 218.492 458.254 218.492 458.254C218.492 458.254 198.3 437.042 195.775 431.563C193.35 426.3 191.608 419.354 192.829 403.383C192.829 403.383 195.483 384.383 212.621 385.675C205.6 388.717 204.325 404.492 206.663 411.687C209 418.883 225.121 433.075 225.121 433.075Z" fill="#44C6AC" stroke="black" stroke-width="5" stroke-linecap="round" stroke-linejoin="round"/>
<path d="M280.071 384.117V416.988C280.071 416.988 286.738 414.117 287.042 399.904C287.346 385.692 280.071 384.117 280.071 384.117Z" fill="black"/>
<path d="M281.113 385.158C291.267 385.158 289.183 409.117 281.371 415.367C273.558 421.617 256.892 437.758 256.892 437.758L248.558 460.675C248.558 460.675 252.204 472.133 248.558 478.908C244.913 485.683 244.913 489.842 244.913 489.842" stroke="black" stroke-width="5" stroke-linecap="round" stroke-linejoin="round"/>
<path d="M220.913 429.167C223.558 432.021 231.892 438.271 228.246 450.771C224.6 463.271 230.85 475.246 230.85 475.771C230.85 476.296 244.913 490.354 244.913 490.354" stroke="black" stroke-width="5" stroke-linecap="round" stroke-linejoin="round"/>
<path d="M212.621 385.675V418.55C212.621 418.55 205.954 415.679 205.65 401.467C205.346 387.254 212.621 385.675 212.621 385.675Z" fill="black"/>
<path d="M87.0834 474.217C87.0834 474.217 95.975 487.225 99.6042 500" stroke="black" stroke-width="5" stroke-linecap="round" stroke-linejoin="round"/>
<path d="M394.788 500C398.425 487.225 407.288 474.217 407.288 474.217" stroke="black" stroke-width="5" stroke-linecap="round" stroke-linejoin="round"/>
<path d="M326.163 274.479C326.163 335.604 303.767 385.158 241.788 385.158C179.808 385.158 157.413 335.604 157.413 274.479C157.413 213.354 177.204 159.633 241.788 159.633C306.371 159.633 326.163 213.354 326.163 274.479Z" fill="#F2F2F2" stroke="black" stroke-width="5" stroke-linecap="round" stroke-linejoin="round"/>
<path d="M325.833 261.321C325.833 261.321 345.417 259.654 345.417 280.992C345.417 302.329 323.142 310.454 323.142 310.454L325.833 261.321Z" fill="#F2F2F2" stroke="black" stroke-width="5" stroke-linecap="round" stroke-linejoin="round"/>
<path d="M157.337 261.321C157.337 261.321 137.754 259.654 137.754 280.988C137.754 302.321 160 310.454 160 310.454L157.337 261.321Z" fill="#F2F2F2" stroke="black" stroke-width="5" stroke-linecap="round" stroke-linejoin="round"/>
<path d="M207.413 266.408C210.864 266.408 213.663 263.61 213.663 260.158C213.663 256.707 210.864 253.908 207.413 253.908C203.961 253.908 201.163 256.707 201.163 260.158C201.163 263.61 203.961 266.408 207.413 266.408Z" fill="black"/>
<path d="M274.863 266.667C278.314 266.667 281.113 263.868 281.113 260.417C281.113 256.965 278.314 254.167 274.863 254.167C271.411 254.167 268.613 256.965 268.613 260.417C268.613 263.868 271.411 266.667 274.863 266.667Z" fill="black"/>
<path d="M181.113 244.271C186.482 224.563 197.246 220.222 213.404 231.25" stroke="black" stroke-width="8.23" stroke-linecap="round" stroke-linejoin="round"/>
<path d="M297.258 244.271C291.881 224.563 281.117 220.222 264.967 231.25" stroke="black" stroke-width="8.23" stroke-linecap="round" stroke-linejoin="round"/>
<path d="M241.788 277.867C238.61 277.867 235.564 279.129 233.317 281.375C231.07 283.622 229.808 286.669 229.808 289.846C229.808 293.023 231.07 296.07 233.317 298.316C235.564 300.563 238.61 301.825 241.788 301.825" stroke="black" stroke-width="5" stroke-linecap="round" stroke-linejoin="round"/>
<path d="M266.546 342.333C262.183 344.625 256.029 346.371 247.517 347.133C238.35 347.967 231.387 347.133 226.267 345.338C208.667 339.188 212.267 321.667 219.925 320.05C229.729 317.967 234.508 327.867 244.404 325.783C254.3 323.7 263.675 315.367 269.404 316.408C273.925 317.229 283.008 333.675 266.546 342.333Z" fill="black" stroke="black" stroke-width="5" stroke-linecap="round" stroke-linejoin="round"/>
<path d="M266.546 342.333C262.183 344.625 256.029 346.371 247.517 347.133C238.35 347.967 231.388 347.133 226.267 345.338C230.017 338.925 237.933 334.583 244.925 334.117C251.483 333.675 262.083 337.65 266.546 342.333Z" fill="#F2F2F2" stroke="black" stroke-width="5" stroke-linecap="round" stroke-linejoin="round"/>
<path d="M170.217 134.487C172.382 131.815 173.9 128.678 174.65 125.321C174.906 124.105 175.264 122.913 175.721 121.758L164.696 124.304C167.85 118.492 171.392 112.317 177.425 109.696C180.492 108.358 183.796 108.113 187.142 108.529C188.615 107.607 190.16 106.804 191.762 106.129C195.987 104.394 200.45 103.311 205 102.917C202.907 100.99 201.016 98.8538 199.358 96.5417C206.725 98.9708 214.658 95.4 222.242 96.875C226.855 97.8354 230.932 100.508 233.654 104.354C237.446 104.771 241.237 105.104 245.042 105.233C246.15 105.271 247.258 105.287 248.375 105.292C251.096 102.721 254.996 101.383 258.817 101.004C263.775 100.517 268.817 101.375 273.817 101.617C278.817 101.858 284.083 101.383 288.154 98.5792C286.385 101.474 284.11 104.027 281.437 106.117C287.846 107.367 294.067 109.813 299.062 113.921C301.822 114.171 304.47 115.13 306.75 116.704C310.196 119 312.937 122.2 315.796 125.213C318.654 128.225 321.767 131.167 325.583 132.692C323.241 134.203 320.562 135.113 317.783 135.342C321.246 137.842 325.021 139.954 328.312 142.7C331.896 145.688 334.242 149.721 336.196 154.096C339.287 153.533 342.533 153.017 345.533 154.096C350 155.729 352.629 160.417 354.583 164.808C356.537 169.2 358.408 174.012 362.371 176.708C355.333 176.359 348.555 173.943 342.883 169.762C344.192 172.324 345.878 174.675 347.883 176.738C355.479 184.296 356.383 196.271 354.937 206.738C353.492 217.204 350.217 227.525 351.308 238.108C351.392 238.869 351.489 239.633 351.6 240.4C353.128 241.822 354.23 243.641 354.783 245.654C355.654 248.617 355.642 251.733 356.033 254.783C356.425 257.833 357.337 261.033 359.587 263.146C356.124 262.875 352.823 261.569 350.113 259.396C349.201 260.605 347.974 261.54 346.567 262.1C344.483 262.933 342.133 262.787 339.9 262.962C328.021 263.871 317.879 274.379 317.25 286.425C313.262 273.892 316.758 260.592 319.075 247.85C321 237.258 321.787 225.4 317.283 215.792C316.118 217.882 314.371 219.588 312.254 220.704C314.392 218.55 315.337 215.479 315.358 212.333C314.883 211.608 314.367 210.913 313.817 210.221C303.333 197.083 296.612 181.5 286.329 168.237C282.162 171.621 280.571 177.879 282.558 183.054C279.588 181.009 277.129 178.307 275.373 175.157C273.617 172.006 272.611 168.494 272.433 164.892C270.233 174.242 261.025 181.175 251.45 180.692C253.991 178.837 256.115 176.469 257.683 173.742C259.252 171.014 260.23 167.988 260.554 164.858C256.233 162.55 251.721 160.413 246.929 159.717C242.137 159.021 236.962 159.946 233.446 163.175C229.929 166.404 228.6 172.2 231.183 176.404C229.333 176.021 227.604 175.193 226.146 173.992C224.689 172.79 223.546 171.251 222.817 169.508C222.114 167.776 221.856 165.894 222.067 164.037C222.277 162.179 222.949 160.403 224.021 158.871C215.525 159.458 209.208 166.538 204.317 173.454C199.425 180.371 194.504 188.075 186.562 190.992C188.762 186.569 190.957 182.149 193.146 177.729C187.367 177.933 182.479 182.208 179.783 187.312C177.087 192.417 176.142 198.279 175.054 204C173.967 209.721 173.625 214.392 170.171 218.979C165.337 225.383 164.137 233.562 164.337 241.896C164.337 241.954 164.337 242.017 164.337 242.075C164.492 246.121 164.852 250.157 165.417 254.167C167.012 266.321 168.854 279.463 163.017 289.958C162.221 282.729 155.1 276.625 147.962 277.079C144.675 277.279 141.487 278.667 138.204 278.213C134.387 277.671 131.183 274.642 129.433 271.129C127.683 267.617 127.15 263.654 126.783 259.775C126.737 259.313 126.696 258.846 126.662 258.383L121.917 260.833C123.954 256.154 123.867 250.796 124.154 245.642C124.342 242.187 124.783 238.592 126.079 235.471C126.192 230.567 126.442 225.675 126.762 220.792C124.699 222.582 122.467 224.168 120.096 225.525C120.558 215.321 121.05 204.975 124.187 195.358C126.446 188.446 130.262 181.867 135.612 177.183C136.233 171.958 136.787 166.733 139.075 162.1C140.168 159.939 141.572 157.95 143.242 156.196C141.254 155.509 139.382 154.525 137.687 153.279C143.437 148.671 149.212 144.033 155.604 140.362C160.152 137.681 165.078 135.701 170.217 134.487V134.487Z" fill="#F2F2F2"/>
<path d="M317.771 135.354C321.233 137.854 325.008 139.967 328.3 142.713C331.883 145.7 334.229 149.733 336.183 154.108" stroke="black" stroke-width="5" stroke-linecap="round" stroke-linejoin="round"/>
<path d="M233.671 104.367C237.463 104.783 241.254 105.117 245.058 105.246C246.167 105.283 247.275 105.3 248.392 105.304" stroke="black" stroke-width="5" stroke-linecap="round" stroke-linejoin="round"/>
<path d="M170.217 134.487C172.382 131.815 173.9 128.678 174.65 125.321C174.906 124.105 175.264 122.913 175.721 121.758" stroke="black" stroke-width="5" stroke-linecap="round" stroke-linejoin="round"/>
<path d="M126.763 220.779C126.442 225.663 126.192 230.554 126.079 235.458" stroke="black" stroke-width="5" stroke-linecap="round" stroke-linejoin="round"/>
<path d="M342.871 169.762C344.18 172.324 345.865 174.675 347.871 176.738C355.467 184.296 356.371 196.271 354.925 206.738C353.479 217.204 350.204 227.525 351.296 238.108C351.379 238.869 351.476 239.633 351.588 240.4" stroke="black" stroke-width="5" stroke-linecap="round" stroke-linejoin="round"/>
<path d="M126.667 258.363C126.7 258.825 126.742 259.292 126.788 259.754C127.154 263.633 127.683 267.592 129.438 271.108C131.192 274.625 134.392 277.65 138.208 278.192C141.492 278.646 144.679 277.258 147.967 277.058C155.104 276.612 162.225 282.708 163.021 289.937C168.854 279.442 167.017 266.3 165.421 254.146C164.858 250.139 164.499 246.106 164.346 242.063C164.346 242.004 164.346 241.942 164.346 241.883C164.133 233.55 165.333 225.367 170.179 218.967C173.633 214.383 173.971 209.708 175.063 203.988C176.154 198.267 177.092 192.396 179.792 187.3C182.492 182.204 187.375 177.925 193.154 177.717C190.957 182.139 188.763 186.56 186.571 190.979C194.513 188.063 199.438 180.363 204.325 173.442C209.213 166.521 215.533 159.438 224.029 158.858C222.957 160.39 222.285 162.166 222.075 164.024C221.865 165.882 222.123 167.763 222.825 169.496C223.554 171.239 224.697 172.778 226.155 173.979C227.613 175.181 229.342 176.009 231.192 176.392C228.608 172.187 229.942 166.392 233.454 163.162C236.967 159.933 242.142 158.996 246.938 159.704C251.733 160.413 256.242 162.538 260.563 164.846C260.238 167.975 259.26 171.002 257.692 173.729C256.123 176.457 254 178.824 251.458 180.679C261.042 181.163 270.242 174.229 272.442 164.879C272.619 168.481 273.625 171.994 275.381 175.144C277.137 178.294 279.596 180.997 282.567 183.042C280.579 177.867 282.15 171.608 286.338 168.225C296.613 181.5 303.333 197.083 313.808 210.188C314.358 210.879 314.875 211.575 315.35 212.3" stroke="black" stroke-width="5" stroke-linecap="round" stroke-linejoin="round"/>
<path d="M317.275 215.771C321.779 225.379 320.992 237.237 319.067 247.829C316.75 260.583 313.233 273.871 317.242 286.404C317.871 274.358 328.013 263.85 339.892 262.942C342.142 262.767 344.475 262.892 346.558 262.079C347.966 261.52 349.192 260.584 350.104 259.375" stroke="black" stroke-width="5" stroke-linecap="round" stroke-linejoin="round"/>
<path d="M135.6 177.179C136.221 171.954 136.775 166.729 139.063 162.096C140.156 159.935 141.56 157.946 143.229 156.192" stroke="black" stroke-width="5" stroke-linecap="round" stroke-linejoin="round"/>
<path d="M187.142 108.529C188.615 107.607 190.16 106.804 191.763 106.129C195.987 104.394 200.45 103.311 205 102.917" stroke="black" stroke-width="5" stroke-linecap="round" stroke-linejoin="round"/>
<path d="M281.425 106.129C287.833 107.379 294.054 109.825 299.05 113.933" stroke="black" stroke-width="5" stroke-linecap="round" stroke-linejoin="round"/>
<path d="M260.788 112.467C268.215 113.009 275.575 110.747 281.417 106.129V106.129C284.089 104.039 286.364 101.486 288.133 98.5917C284.063 101.396 278.796 101.867 273.796 101.629C268.796 101.392 263.771 100.529 258.796 101.017C254.975 101.396 251.075 102.733 248.354 105.304C247.534 106.073 246.832 106.959 246.271 107.933" stroke="black" stroke-width="5" stroke-linecap="round" stroke-linejoin="round"/>
<path d="M235.879 108.479C235.324 107.018 234.582 105.636 233.671 104.367C230.949 100.52 226.871 97.8479 222.258 96.8875C214.675 95.4125 206.742 98.9708 199.375 96.5542C201.028 98.8612 202.913 100.993 205 102.917V102.917C209.704 107.27 215.347 110.484 221.492 112.308" stroke="black" stroke-width="5" stroke-linecap="round" stroke-linejoin="round"/>
<path d="M199.504 112.287C195.575 110.579 191.329 109.042 187.142 108.537C183.808 108.121 180.475 108.367 177.425 109.704C171.392 112.325 167.842 118.5 164.696 124.313L175.721 121.767C182.11 120.283 188.51 118.804 194.921 117.329" stroke="black" stroke-width="5" stroke-linecap="round" stroke-linejoin="round"/>
<path d="M176.508 133.608C174.391 133.729 172.286 134.023 170.217 134.487C165.073 135.698 160.141 137.677 155.588 140.358C149.188 144.017 143.413 148.654 137.671 153.275C139.365 154.521 141.237 155.504 143.225 156.192C148.492 158.046 154.425 157.858 159.354 155.458" stroke="black" stroke-width="5" stroke-linecap="round" stroke-linejoin="round"/>
<path d="M142.6 172.629C140.056 173.79 137.697 175.32 135.6 177.171C130.25 181.854 126.433 188.421 124.175 195.346C121.038 204.962 120.546 215.308 120.083 225.512C122.454 224.155 124.687 222.57 126.75 220.779V220.779C129.341 218.53 131.646 215.97 133.613 213.158" stroke="black" stroke-width="5" stroke-linecap="round" stroke-linejoin="round"/>
<path d="M128.688 231.25C127.583 232.486 126.7 233.904 126.079 235.442C124.783 238.562 124.342 242.158 124.154 245.612C123.867 250.767 123.954 256.125 121.917 260.804L126.675 258.346L139.75 251.596" stroke="black" stroke-width="5" stroke-linecap="round" stroke-linejoin="round"/>
<path d="M307.721 133.333C310.804 134.966 314.297 135.662 317.771 135.338C320.549 135.109 323.228 134.199 325.571 132.688C321.754 131.163 318.638 128.225 315.783 125.208C312.929 122.192 310.183 118.996 306.737 116.7C304.457 115.126 301.809 114.167 299.05 113.917C297.723 113.821 296.39 113.983 295.125 114.396" stroke="black" stroke-width="5" stroke-linecap="round" stroke-linejoin="round"/>
<path d="M302.558 184.546C303.908 188.808 306.483 192.579 308.95 196.329C311.417 200.079 313.863 203.958 314.892 208.308C315.2 209.616 315.354 210.956 315.35 212.3V212.3C315.329 215.446 314.383 218.517 312.246 220.671C314.363 219.555 316.11 217.848 317.275 215.758C318.942 212.929 319.875 209.483 320.4 206.175C321.317 200.425 321.55 194.296 324.567 189.413" stroke="black" stroke-width="5" stroke-linecap="round" stroke-linejoin="round"/>
<path d="M147.375 212.521C151.183 217.042 152.429 223.1 154.279 228.7C156.092 234.163 159.108 239.921 164.354 242.067C164.483 242.121 164.612 242.175 164.75 242.221C164.612 242.113 164.479 242.004 164.333 241.888C161.092 239.108 159.779 234.475 160.075 230.221C160.379 225.804 162.158 221.696 163.992 217.721C165.825 213.746 167.742 209.742 168.396 205.375" stroke="black" stroke-width="5" stroke-linecap="round" stroke-linejoin="round"/>
<path d="M339.467 197.146C343.475 204.371 342.563 213.946 337.288 219.967C341.317 218.687 345.592 217.25 348.171 213.892C350.85 210.4 351.113 205.558 350.796 201.079C350.479 196.6 349.675 192.017 350.638 187.667" stroke="black" stroke-width="5" stroke-linecap="round" stroke-linejoin="round"/>
<path d="M335.221 162.212C337.378 165.097 339.957 167.641 342.871 169.758V169.758C348.543 173.939 355.321 176.355 362.358 176.704C358.396 174.008 356.525 169.204 354.571 164.804C352.617 160.404 349.988 155.725 345.521 154.108C342.521 153.025 339.271 153.542 336.183 154.108C336.137 154.113 336.091 154.121 336.046 154.133C332.892 152.912 331.658 151.183 329.925 148.237" stroke="black" stroke-width="5" stroke-linecap="round" stroke-linejoin="round"/>
<path d="M343.396 248.637C344.277 252.907 346.664 256.718 350.121 259.375C352.831 261.548 356.133 262.854 359.596 263.125C357.346 261 356.438 257.808 356.042 254.762C355.646 251.717 355.654 248.596 354.792 245.633C354.239 243.621 353.136 241.801 351.608 240.379C350.853 239.701 349.958 239.196 348.988 238.9" stroke="black" stroke-width="5" stroke-linecap="round" stroke-linejoin="round"/>
<path d="M301.942 330.575L305.958 333.521" stroke="black" stroke-width="5" stroke-miterlimit="10" stroke-linecap="round"/>
<path d="M297.013 343.796L300.471 347.388" stroke="black" stroke-width="5" stroke-miterlimit="10" stroke-linecap="round"/>
<path d="M275.521 346.25L276.125 351.196" stroke="black" stroke-width="5" stroke-miterlimit="10" stroke-linecap="round"/>
<path d="M257.321 363.425L256.829 368.383" stroke="black" stroke-width="5" stroke-miterlimit="10" stroke-linecap="round"/>
<path d="M277.083 365.362L279.75 369.571" stroke="black" stroke-width="5" stroke-miterlimit="10" stroke-linecap="round"/>
<path d="M242.183 375.729L239.683 380.033" stroke="black" stroke-width="5" stroke-miterlimit="10" stroke-linecap="round"/>
<path d="M235.754 351.954L235.688 356.954" stroke="black" stroke-width="5" stroke-miterlimit="10" stroke-linecap="round"/>
<path d="M219.075 368.858L216.95 373.367" stroke="black" stroke-width="5" stroke-miterlimit="10" stroke-linecap="round"/>
<path d="M211.533 354.583L210.95 359.533" stroke="black" stroke-width="5" stroke-miterlimit="10" stroke-linecap="round"/>
<path d="M183.771 350.758L186.625 346.675" stroke="black" stroke-width="5" stroke-miterlimit="10" stroke-linecap="round"/>
<path d="M196.046 333.279L197.271 338.108" stroke="black" stroke-width="5" stroke-miterlimit="10" stroke-linecap="round"/>
<path d="M170.379 320.454L175.021 318.646" stroke="black" stroke-width="5" stroke-miterlimit="10" stroke-linecap="round"/>
<path d="M308.825 315.833L313.658 317.05" stroke="black" stroke-width="5" stroke-miterlimit="10" stroke-linecap="round"/>
<path d="M301.696 173.071C299.975 170.05 298.237 167.004 295.908 164.425C293.579 161.846 290.571 159.738 287.158 159.104" stroke="black" stroke-width="5" stroke-linecap="round" stroke-linejoin="round"/>
<path d="M299.083 125.983C292.164 126.093 285.246 125.686 278.388 124.767" stroke="black" stroke-width="5" stroke-linecap="round" stroke-linejoin="round"/>
<path d="M249.004 123.812C250.363 122.456 252.095 121.533 253.979 121.162C255.863 120.792 257.816 120.989 259.587 121.729" stroke="black" stroke-width="5" stroke-linecap="round" stroke-linejoin="round"/>
<path d="M241.313 118.125C238.498 118.419 235.655 117.957 233.079 116.785C230.502 115.613 228.286 113.774 226.658 111.458" stroke="black" stroke-width="5" stroke-linecap="round" stroke-linejoin="round"/>
<path d="M223.846 122.542C213.925 118.375 201.288 122.208 195.363 131.192" stroke="black" stroke-width="5" stroke-linecap="round" stroke-linejoin="round"/>
<path d="M184.071 138.208C181.619 141.151 178.495 143.461 174.962 144.942C171.43 146.423 167.593 147.032 163.775 146.717" stroke="black" stroke-width="5" stroke-linecap="round" stroke-linejoin="round"/>
<path d="M167.083 158.296C164.167 163.908 158.717 167.629 154.142 171.983C149.567 176.338 145.538 182.421 146.938 188.579" stroke="black" stroke-width="5" stroke-linecap="round" stroke-linejoin="round"/>
<path d="M139.246 219.746C138.852 224.978 136.865 229.963 133.554 234.033" stroke="black" stroke-width="5" stroke-linecap="round" stroke-linejoin="round"/>
<path d="M151.558 249.125C151.058 251.65 152.25 254.212 153.771 256.283C155.292 258.354 157.179 260.175 158.417 262.433C159.654 264.692 160.117 267.625 158.683 269.758" stroke="black" stroke-width="5" stroke-linecap="round" stroke-linejoin="round"/>
<path d="M140.354 270.208C141.419 268.786 142.167 267.153 142.548 265.418C142.93 263.684 142.936 261.887 142.567 260.15" stroke="black" stroke-width="5" stroke-linecap="round" stroke-linejoin="round"/>
<path d="M159.958 208.275C160.964 200.52 163.849 193.128 168.363 186.742" stroke="black" stroke-width="5" stroke-linecap="round" stroke-linejoin="round"/>
<path d="M179.383 170.696C181.717 167.849 184.175 165.11 186.758 162.479" stroke="black" stroke-width="5" stroke-linecap="round" stroke-linejoin="round"/>
<path d="M205.483 159.658C203.462 164.835 200.841 169.758 197.675 174.325" stroke="black" stroke-width="5" stroke-linecap="round" stroke-linejoin="round"/>
<path d="M235.417 152.021C241.3 146.667 251.288 147.854 256.833 142.142" stroke="black" stroke-width="5" stroke-linecap="round" stroke-linejoin="round"/>
<path d="M257.729 155.558C257.539 154.879 257.127 154.282 256.558 153.865C255.989 153.447 255.297 153.232 254.592 153.254" stroke="black" stroke-width="5" stroke-linecap="round" stroke-linejoin="round"/>
<path d="M229.842 145.654C223.523 146.274 217.159 145.063 211.508 142.167" stroke="black" stroke-width="5" stroke-linecap="round" stroke-linejoin="round"/>
<path d="M202.113 144.875C199.821 148.477 198.029 152.374 196.788 156.458" stroke="black" stroke-width="5" stroke-linecap="round" stroke-linejoin="round"/>
<path d="M331.596 230.304C330.554 240.463 326.825 250.161 320.792 258.4" stroke="black" stroke-width="5" stroke-linecap="round" stroke-linejoin="round"/>
<path d="M320.7 172.467C323.345 175.578 324.928 179.452 325.217 183.525" stroke="black" stroke-width="5" stroke-linecap="round" stroke-linejoin="round"/>
<path d="M271.079 142.642C274.775 141.971 278.496 143.529 281.8 145.321C285.104 147.112 288.367 149.212 292.083 149.779" stroke="black" stroke-width="5" stroke-linecap="round" stroke-linejoin="round"/>
<path d="M300.683 147.221C302.317 149.521 304.017 151.875 306.354 153.446C308.692 155.017 311.883 155.662 314.362 154.312" stroke="black" stroke-width="5" stroke-linecap="round" stroke-linejoin="round"/>
</g>
<defs>
<clipPath id="clip0_427_450">
<rect width="500" height="500" fill="white"/>
</clipPath>
</defs>
</svg>
