<svg width="500" height="500" viewBox="0 0 500 500" fill="none" xmlns="http://www.w3.org/2000/svg">
<g clip-path="url(#clip0_427_58)">
<path d="M477.917 500H22.0833C22.0833 499.721 22.0833 499.442 22.0833 499.167C22.4583 469.104 43.0792 435.15 43.0792 435.15L75 418.867L75.45 418.637L115.417 398.25L116.092 397.908L158.096 376.479L158.8 376.125L166.608 372.142C167.163 371.825 168.95 371.308 171.642 370.663C176.992 369.375 185.925 367.538 195.875 365.583L196.546 365.454C200.367 364.704 204.338 363.938 208.3 363.183C229.167 359.208 250 355.462 250 355.462C250 355.462 273.375 359.667 295.417 363.892C299.792 364.725 304.121 365.558 308.192 366.392L308.658 366.483C312.375 367.221 315.879 367.938 319.017 368.6C326.792 370.229 332.35 371.542 333.4 372.146L346.971 379.067L347.771 379.483L389.658 400.833L390.458 401.25L430.254 421.546L430.929 421.892L456.917 435.146C456.917 435.146 477.538 469.1 477.913 499.162C477.917 499.442 477.917 499.721 477.917 500Z" fill="#44C6AC" stroke="black" stroke-width="5" stroke-miterlimit="10" stroke-linecap="round"/>
<path d="M208.617 346.817C204.908 349.287 187 372.283 201.513 376.846C216.025 381.408 291.383 390.054 307.442 372.142C314.237 363.496 293.238 346.2 293.238 346.2L208.617 346.817Z" fill="black"/>
<path d="M295.4 339.717H208.308V404.571H295.4V339.717Z" fill="#F2F2F2" stroke="black" stroke-width="5" stroke-linecap="round" stroke-linejoin="round"/>
<path d="M263.85 499.942H235.958C239.842 477.229 243.875 456.533 247.025 447.413C248.104 444.267 249.079 442.5 249.9 442.5C250.721 442.5 251.817 444.496 252.979 448.017C256.088 457.417 260.046 477.712 263.85 499.942Z" fill="#F2F2F2" stroke="black" stroke-width="5" stroke-linecap="round" stroke-linejoin="round"/>
<path d="M219.425 427.413C219.425 427.413 243.825 447.5 249.383 448.733C254.942 449.967 278.675 427.413 278.675 427.413L269.767 396.25H229L219.425 427.413Z" fill="#F2F2F2" stroke="black" stroke-width="5" stroke-linecap="round" stroke-linejoin="round"/>
<path d="M202.654 499.167L205.988 426.438L202.654 499.167Z" fill="#FF8159" stroke="black" stroke-width="5" stroke-linecap="round" stroke-linejoin="round"/>
<path d="M303.079 500L299.854 422.767L303.079 500Z" fill="#FF8159" stroke="black" stroke-width="5" stroke-linecap="round" stroke-linejoin="round"/>
<path d="M208.617 347.917C208.617 347.917 190.7 362.892 196.879 372.775C203.058 382.658 232.088 383.275 253.704 383.275C275.321 383.275 301.883 380.804 307.454 372.154C313.025 363.504 293.413 346.463 293.413 346.463L335.25 382.654C340.192 399.95 280.896 435.154 280.896 435.154L269.767 396.25L230.854 395.629L216.667 435.146C216.667 435.146 160.029 391.667 167.233 373.379L208.617 347.917Z" fill="#44C6AC" stroke="black" stroke-width="5" stroke-miterlimit="10" stroke-linecap="round"/>
<path d="M69.7667 499.167L69.6833 500H69.6292L69.6875 499.167L75 418.867L69.7667 499.167Z" fill="#FF8159" stroke="black" stroke-width="5" stroke-linecap="round" stroke-linejoin="round"/>
<path d="M110.338 499.167C110.318 499.475 110.297 499.753 110.275 500H110.233L110.275 499.167L115.417 398.25C115.417 398.25 111.329 486.396 110.338 499.167Z" fill="#FF8159" stroke="black" stroke-width="5" stroke-linecap="round" stroke-linejoin="round"/>
<path d="M153.021 499.167C153 499.475 152.979 499.754 152.962 500H152.917L152.954 499.167L158.096 376.483C158.096 376.483 153.929 484.933 153.021 499.167Z" fill="#FF8159" stroke="black" stroke-width="5" stroke-linecap="round" stroke-linejoin="round"/>
<path d="M436.05 500C436.025 499.75 430.929 421.892 430.929 421.892L436.05 500Z" fill="#FF8159" stroke="black" stroke-width="5" stroke-linecap="round" stroke-linejoin="round"/>
<path d="M395.458 500L389.654 400.833L395.458 500Z" stroke="black" stroke-width="5" stroke-linecap="round" stroke-linejoin="round"/>
<path d="M352.771 500L347.771 379.467L352.771 500Z" fill="#FF8159" stroke="black" stroke-width="5" stroke-linecap="round" stroke-linejoin="round"/>
<path d="M477.917 499.167C477.917 499.446 477.917 499.725 477.917 500H22.0833C22.0833 499.721 22.0833 499.442 22.0833 499.167H477.917Z" fill="#070606"/>
<path d="M253.304 452.4C251.692 452.959 249.972 453.137 248.279 452.921Z" fill="#FF8159"/>
<path d="M253.304 452.4C251.692 452.959 249.972 453.137 248.279 452.921" stroke="black" stroke-width="5" stroke-linecap="round" stroke-linejoin="round"/>
<path d="M245.3 455.938C247.295 456.38 249.318 456.687 251.354 456.858Z" fill="#FF8159"/>
<path d="M245.3 455.938C247.295 456.38 249.318 456.687 251.354 456.858" stroke="black" stroke-width="5" stroke-linecap="round" stroke-linejoin="round"/>
<path d="M346.171 208.604C346.171 208.604 372.538 206.608 372.538 231.938C372.538 257.267 342.996 266.879 342.996 266.879L346.171 208.604Z" fill="#F2F2F2" stroke="black" stroke-width="5" stroke-linecap="round" stroke-linejoin="round"/>
<path d="M152.083 208.604C152.083 208.604 126.25 206.608 126.25 231.938C126.25 257.267 155.25 266.875 155.25 266.875L152.083 208.604Z" fill="#F2F2F2" stroke="black" stroke-width="5" stroke-linecap="round" stroke-linejoin="round"/>
<path d="M349.446 224.212C349.446 296.712 322.883 355.462 249.383 355.462C175.883 355.462 149.321 296.712 149.321 224.212C149.321 151.712 172.792 88.0167 249.383 88.0167C325.975 88.0167 349.446 151.721 349.446 224.212Z" fill="#F2F2F2" stroke="black" stroke-width="5" stroke-linecap="round" stroke-linejoin="round"/>
<path d="M242.279 256.637C244.165 256.67 246.039 256.326 247.791 255.627C249.543 254.927 251.138 253.886 252.483 252.564C253.828 251.241 254.897 249.664 255.626 247.925C256.355 246.185 256.731 244.318 256.731 242.431C256.731 240.545 256.355 238.677 255.626 236.938C254.897 235.198 253.828 233.621 252.483 232.299C251.138 230.976 249.543 229.935 247.791 229.236C246.039 228.536 244.165 228.193 242.279 228.225V203.225" stroke="black" stroke-width="5" stroke-linecap="round" stroke-linejoin="round"/>
<path d="M201.512 112.413C212.929 116.804 278.721 117.971 285.517 109.942C285.517 109.942 326.283 126.004 323.813 151.325C321.342 176.646 342.979 234.712 346.046 221.742C349.113 208.771 348.442 207.55 353.729 208.779C359.017 210.008 369.271 196.667 362.108 158.75C357.167 117.983 330.604 66.1 245.983 66.1C161.362 66.1 134.187 140.208 135.417 168.621C136.646 197.033 135.417 203.829 144.067 208.771C152.717 213.712 149.625 221.742 153.95 226.687C158.275 231.633 171.242 156.892 171.867 145.771C172.492 134.65 193.483 109.325 201.512 112.413Z" fill="#070606"/>
<path d="M274.608 218.45C274.608 206.729 304.663 206.729 304.663 218.45Z" fill="#F2F2F2"/>
<path d="M274.608 218.45C274.608 206.729 304.663 206.729 304.663 218.45" stroke="black" stroke-width="5" stroke-linecap="round" stroke-linejoin="round"/>
<path d="M189.229 218.45C189.229 206.729 219.283 206.729 219.283 218.45Z" fill="#F2F2F2"/>
<path d="M189.229 218.45C189.229 206.729 219.283 206.729 219.283 218.45" stroke="black" stroke-width="5" stroke-linecap="round" stroke-linejoin="round"/>
<path d="M179.613 196.833C184.196 184.896 225.446 184.296 228.9 196.833Z" fill="#F2F2F2"/>
<path d="M179.613 196.833C184.196 184.896 225.446 184.296 228.9 196.833" stroke="black" stroke-width="5" stroke-linecap="round" stroke-linejoin="round"/>
<path d="M314.279 196.833C309.696 184.896 268.446 184.296 264.992 196.833Z" fill="#F2F2F2"/>
<path d="M314.279 196.833C309.696 184.896 268.446 184.296 264.992 196.833" stroke="black" stroke-width="5" stroke-linecap="round" stroke-linejoin="round"/>
<path d="M215.1 260.654L201.513 266.829" stroke="black" stroke-width="5" stroke-linecap="round" stroke-linejoin="round"/>
<path d="M225.042 266.725L213.813 273.112" stroke="black" stroke-width="5.61" stroke-linecap="round" stroke-linejoin="round"/>
<path d="M276.304 260.654L289.896 266.829" stroke="black" stroke-width="5" stroke-linecap="round" stroke-linejoin="round"/>
<path d="M266.367 266.725L277.596 273.112" stroke="black" stroke-width="5.61" stroke-linecap="round" stroke-linejoin="round"/>
<path d="M208.617 281.667C208.617 308.692 290.15 308.604 290.15 281.667Z" fill="#F2F2F2"/>
<path d="M208.617 281.667C208.617 308.692 290.15 308.604 290.15 281.667" stroke="black" stroke-width="5" stroke-linecap="round" stroke-linejoin="round"/>
<path d="M321.696 286.142L335.417 297.6" stroke="black" stroke-width="6" stroke-linecap="round" stroke-linejoin="round"/>
<path d="M315.325 298.121L330.208 312.183" stroke="black" stroke-width="6" stroke-linecap="round" stroke-linejoin="round"/>
<path d="M308.954 306.975L319.529 322.704" stroke="black" stroke-width="6" stroke-linecap="round" stroke-linejoin="round"/>
<path d="M302.583 317.392L308.954 331.975" stroke="black" stroke-width="6" stroke-linecap="round" stroke-linejoin="round"/>
<path d="M293.317 324.683L299.979 340.258" stroke="black" stroke-width="6" stroke-linecap="round" stroke-linejoin="round"/>
<path d="M281.158 328.85L285.792 346.038" stroke="black" stroke-width="6" stroke-linecap="round" stroke-linejoin="round"/>
<path d="M267.258 332.496L271.8 351.112" stroke="black" stroke-width="6" stroke-linecap="round" stroke-linejoin="round"/>
<path d="M253.358 333.538L252.2 352.288" stroke="black" stroke-width="6" stroke-linecap="round" stroke-linejoin="round"/>
<path d="M235.983 330.933L233.571 352.287" stroke="black" stroke-width="6" stroke-linecap="round" stroke-linejoin="round"/>
<path d="M219.771 328.85L211.667 346.038" stroke="black" stroke-width="6" stroke-linecap="round" stroke-linejoin="round"/>
<path d="M205.871 322.6L191.979 337.358" stroke="black" stroke-width="6" stroke-linecap="round" stroke-linejoin="round"/>
<path d="M191.971 312.183L178.65 322.6" stroke="black" stroke-width="6" stroke-linecap="round" stroke-linejoin="round"/>
<path d="M182.704 300.725L168.225 306.454" stroke="black" stroke-width="6" stroke-linecap="round" stroke-linejoin="round"/>
<path d="M150.229 177.608L152.021 174.029" stroke="#F2F2F2" stroke-width="5" stroke-miterlimit="10" stroke-linecap="round"/>
<path d="M149.033 142.988C150.579 142.504 152.001 141.689 153.2 140.6" stroke="#F2F2F2" stroke-width="5" stroke-miterlimit="10" stroke-linecap="round"/>
<path d="M165.15 124.483V128.067" stroke="#F2F2F2" stroke-width="5" stroke-miterlimit="10" stroke-linecap="round"/>
<path d="M174.696 110.15C176.079 108.606 177.106 106.776 177.704 104.792" stroke="#F2F2F2" stroke-width="5" stroke-miterlimit="10" stroke-linecap="round"/>
<path d="M195.608 97.5667C197.63 98.0897 199.474 99.1476 200.946 100.629" stroke="#F2F2F2" stroke-width="5" stroke-miterlimit="10" stroke-linecap="round"/>
<path d="M223.579 83.225L226.55 80.2292" stroke="#F2F2F2" stroke-width="5" stroke-miterlimit="10" stroke-linecap="round"/>
<path d="M226.6 100.071L229.583 101.862" stroke="#F2F2F2" stroke-width="5" stroke-miterlimit="10" stroke-linecap="round"/>
<path d="M248.708 105.367L252.329 103.042" stroke="#F2F2F2" stroke-width="5" stroke-miterlimit="10" stroke-linecap="round"/>
<path d="M247.083 90.3875L245.196 86.8583" stroke="#F2F2F2" stroke-width="5" stroke-miterlimit="10" stroke-linecap="round"/>
<path d="M284.583 102.454L286.954 100.054" stroke="#F2F2F2" stroke-width="5" stroke-miterlimit="10" stroke-linecap="round"/>
<path d="M275.025 88.05L273.925 86.2" stroke="#F2F2F2" stroke-width="5" stroke-miterlimit="10" stroke-linecap="round"/>
<path d="M311.954 97.5917C312.242 97.2256 312.611 96.9316 313.031 96.7327C313.452 96.5338 313.914 96.4356 314.379 96.4459" stroke="#F2F2F2" stroke-width="5" stroke-miterlimit="10" stroke-linecap="round"/>
<path d="M308.421 111.35L310.021 116.767" stroke="#F2F2F2" stroke-width="5" stroke-miterlimit="10" stroke-linecap="round"/>
<path d="M333.479 120.904H337.646" stroke="#F2F2F2" stroke-width="5" stroke-miterlimit="10" stroke-linecap="round"/>
<path d="M330.458 151.337C330.2 153.037 329.647 154.678 328.825 156.187" stroke="#F2F2F2" stroke-width="5" stroke-miterlimit="10" stroke-linecap="round"/>
<path d="M344.192 163.925L348.396 166.879" stroke="#F2F2F2" stroke-width="5" stroke-miterlimit="10" stroke-linecap="round"/>
<path d="M354.904 181.25L358.587 184.721" stroke="#F2F2F2" stroke-width="5" stroke-miterlimit="10" stroke-linecap="round"/>
<path d="M346.062 195.55L342.6 200.417" stroke="#F2F2F2" stroke-width="5" stroke-miterlimit="10" stroke-linecap="round"/>
<path d="M340.658 185.387C339.345 186.523 338.288 187.925 337.558 189.5" stroke="#F2F2F2" stroke-width="5" stroke-miterlimit="10" stroke-linecap="round"/>
<path d="M152.017 199.704C152.44 199.83 152.826 200.058 153.141 200.369C153.455 200.679 153.689 201.062 153.821 201.483" stroke="#F2F2F2" stroke-width="5" stroke-miterlimit="10" stroke-linecap="round"/>
<path d="M344.833 142.404L348.408 139.413" stroke="#F2F2F2" stroke-width="5" stroke-miterlimit="10" stroke-linecap="round"/>
<path d="M143.663 157.917L146.646 160.9" stroke="#F2F2F2" stroke-width="5" stroke-miterlimit="10" stroke-linecap="round"/>
</g>
<defs>
<clipPath id="clip0_427_58">
<rect width="500" height="500" fill="white"/>
</clipPath>
</defs>
</svg>
