<svg width="500" height="500" viewBox="0 0 500 500" fill="none" xmlns="http://www.w3.org/2000/svg">
<g clip-path="url(#clip0_427_216)">
<path d="M271.408 424.442V406.208V369.375H207.646V424.937" fill="#F2F2F2"/>
<path d="M271.408 424.442V406.208V369.375H207.646V424.937" stroke="black" stroke-width="5" stroke-linecap="round" stroke-linejoin="round"/>
<path d="M206.717 406.208C204.55 408.375 185.975 414.567 196.5 420.758C214.621 431.417 270.342 430.225 286.267 418.258C293.696 412.687 282.554 406.496 271.408 406.175C271.408 406.175 329.587 401.087 365.496 428.946L416.275 500L83.725 499.812C83.725 499.812 118.308 425.021 162.892 413.875C178.483 410 201.454 407.137 206.717 406.208Z" fill="#44C6AC" stroke="black" stroke-width="5" stroke-linecap="round" stroke-linejoin="round"/>
<path d="M284.721 408.067C307.008 412.4 303.912 434.067 238.287 434.687C172.662 435.308 172.037 407.446 206.717 406.208" stroke="black" stroke-width="4.75" stroke-linecap="round" stroke-linejoin="round"/>
<path d="M194.333 418.592C193.717 417.342 195.583 408.067 206.937 407.192C209.908 406.962 208.025 421.442 207.071 423.025C206.058 424.667 195.95 421.821 194.333 418.592Z" fill="black"/>
<path d="M288.671 416.221C289.292 414.971 284.946 408.304 273.575 407.446C270.608 407.217 271.383 421.979 272.325 423.542C273.354 425.204 287.058 419.45 288.671 416.221Z" fill="black"/>
<path d="M196.746 411.792L186.017 412.833" stroke="black" stroke-width="2" stroke-linecap="round" stroke-linejoin="round"/>
<path d="M193.358 414.137L184.375 415.342" stroke="black" stroke-width="2" stroke-linecap="round" stroke-linejoin="round"/>
<path d="M193.358 416.142L183.983 419.346" stroke="black" stroke-width="2" stroke-linecap="round" stroke-linejoin="round"/>
<path d="M194.4 418.825L187.108 423.512" stroke="black" stroke-width="2" stroke-linecap="round" stroke-linejoin="round"/>
<path d="M196.5 420.758L192.317 426.637" stroke="black" stroke-width="2" stroke-linecap="round" stroke-linejoin="round"/>
<path d="M200.65 423.512L196.708 429.321" stroke="black" stroke-width="2" stroke-linecap="round" stroke-linejoin="round"/>
<path d="M288.15 414.137L297.004 418.825" stroke="black" stroke-width="2" stroke-linecap="round" stroke-linejoin="round"/>
<path d="M286.925 417.742L293.65 423.512" stroke="black" stroke-width="2" stroke-linecap="round" stroke-linejoin="round"/>
<path d="M283.579 420.454L287.108 426.637" stroke="black" stroke-width="2" stroke-linecap="round" stroke-linejoin="round"/>
<path d="M279.296 422.992L280.337 429.242" stroke="black" stroke-width="2" stroke-linecap="round" stroke-linejoin="round"/>
<path d="M273.846 423.796L275.171 431.15" stroke="black" stroke-width="2" stroke-linecap="round" stroke-linejoin="round"/>
<path d="M267.412 425.342L267.837 431.846" stroke="black" stroke-width="2" stroke-linecap="round" stroke-linejoin="round"/>
<path d="M260.787 426.637L261.587 433.929" stroke="black" stroke-width="2" stroke-linecap="round" stroke-linejoin="round"/>
<path d="M254.137 427.471L253.612 433.929" stroke="black" stroke-width="2" stroke-linecap="round" stroke-linejoin="round"/>
<path d="M206.058 424.937L203.642 431.433" stroke="black" stroke-width="2" stroke-linecap="round" stroke-linejoin="round"/>
<path d="M213.671 426.637L212.096 433.087" stroke="black" stroke-width="2" stroke-linecap="round" stroke-linejoin="round"/>
<path d="M219.4 428.2L218.879 434.45" stroke="black" stroke-width="2" stroke-linecap="round" stroke-linejoin="round"/>
<path d="M226.304 427.937L226.067 434.45" stroke="black" stroke-width="2" stroke-linecap="round" stroke-linejoin="round"/>
<path d="M231.571 427.937L231.379 434.45" stroke="black" stroke-width="2" stroke-linecap="round" stroke-linejoin="round"/>
<path d="M237.629 428.721L238.15 434.45" stroke="black" stroke-width="2" stroke-linecap="round" stroke-linejoin="round"/>
<path d="M244.4 428.721L244.929 434.45" stroke="black" stroke-width="2" stroke-linecap="round" stroke-linejoin="round"/>
<path d="M250 427.937V434.45" stroke="black" stroke-width="2" stroke-linecap="round" stroke-linejoin="round"/>
<path d="M271.479 401.667C290.496 410.237 253.517 499.821 244.142 499.821C234.767 499.821 177.475 404.508 206.642 404.508" stroke="black" stroke-width="5" stroke-linecap="round" stroke-linejoin="round"/>
<path d="M312.887 298.179C312.887 298.179 332.525 297.558 332.525 281.637C332.525 265.717 315.671 264.779 315.671 264.779" fill="#F2F2F2"/>
<path d="M312.887 298.179C312.887 298.179 332.525 297.558 332.525 281.637C332.525 265.717 315.671 264.779 315.671 264.779" stroke="black" stroke-width="5" stroke-linecap="round" stroke-linejoin="round"/>
<path d="M317.713 293.242C316.696 294.422 316.044 295.872 315.836 297.416C315.627 298.96 315.871 300.531 316.538 301.939C317.204 303.347 318.265 304.531 319.591 305.348C320.918 306.165 322.453 306.579 324.01 306.541C325.567 306.503 327.08 306.014 328.365 305.133C329.65 304.253 330.651 303.018 331.248 301.579C331.845 300.14 332.012 298.559 331.729 297.028C331.445 295.496 330.723 294.079 329.65 292.95" stroke="#44C6AC" stroke-width="4.75" stroke-linecap="round" stroke-linejoin="round"/>
<path d="M163.517 298.179C163.517 298.179 143.879 297.558 143.879 281.637C143.879 265.717 160.733 264.779 160.733 264.779" fill="#F2F2F2"/>
<path d="M163.517 298.179C163.517 298.179 143.879 297.558 143.879 281.637C143.879 265.717 160.733 264.779 160.733 264.779" stroke="black" stroke-width="5" stroke-linecap="round" stroke-linejoin="round"/>
<path d="M146.921 293.812C146.016 295.08 145.498 296.583 145.43 298.139C145.362 299.696 145.747 301.238 146.538 302.58C147.329 303.922 148.493 305.005 149.888 305.699C151.282 306.392 152.849 306.666 154.396 306.488C155.943 306.309 157.406 305.685 158.606 304.691C159.805 303.698 160.691 302.378 161.156 300.891C161.62 299.404 161.643 297.814 161.222 296.315C160.801 294.815 159.954 293.469 158.783 292.442" stroke="#44C6AC" stroke-width="4.75" stroke-linecap="round" stroke-linejoin="round"/>
<path d="M314.438 299.725C315.688 304.058 320.629 324.487 310.721 325.729C300.813 326.971 295.863 321.396 298.958 335.633C302.054 349.871 310.104 372.158 282.863 377.717" stroke="black" stroke-width="6.56" stroke-linecap="round" stroke-linejoin="round"/>
<path d="M305.771 300.962C303.913 308.392 324.963 335.633 313.817 336.871C302.671 338.108 292.767 337.492 292.767 343.679C292.767 349.867 299.583 375.875 292.15 380.833" stroke="black" stroke-width="6.56" stroke-linecap="round" stroke-linejoin="round"/>
<path d="M302.675 311.487C300.196 320.775 319.388 340.583 313.2 344.3C307.013 348.017 289.675 349.871 285.958 358.537C282.242 367.204 282.246 369.062 279.15 370.3" stroke="black" stroke-width="6.56" stroke-linecap="round" stroke-linejoin="round"/>
<path d="M166.5 300.392C164.95 304.725 158.529 325.154 168.346 326.358C178.163 327.562 183.513 321.971 179.396 336.208C175.279 350.446 171.829 380.312 198.667 385.792" stroke="black" stroke-width="6.56" stroke-linecap="round" stroke-linejoin="round"/>
<path d="M175.079 301.596C176.4 309.012 153.392 336.304 164.446 337.5C175.5 338.696 185.45 338.042 185.004 344.229C184.558 350.417 175.879 376.417 182.95 381.337" stroke="black" stroke-width="6.56" stroke-linecap="round" stroke-linejoin="round"/>
<path d="M177.417 312.083C179.225 321.354 158.608 341.217 164.529 344.904C170.45 348.592 187.654 350.387 190.746 359.033C193.837 367.679 193.704 369.533 196.708 370.758" stroke="black" stroke-width="6.56" stroke-linecap="round" stroke-linejoin="round"/>
<path d="M317.183 275.221C312.442 330.992 264.583 385.471 239.217 385.471C213.85 385.471 167.75 339.658 161.25 275.221C161.25 214.329 193.708 164.971 239.212 164.971C284.717 164.971 317.183 214.329 317.183 275.221Z" fill="#F2F2F2" stroke="black" stroke-width="5" stroke-linecap="round" stroke-linejoin="round"/>
<path d="M148.521 241.533C144.808 244.629 147.904 275.583 136.758 276.2C125.612 276.817 121.283 270 121.9 265.058" stroke="black" stroke-width="6.56" stroke-linecap="round" stroke-linejoin="round"/>
<path d="M154.712 257.008C154.092 259.483 149.142 296.012 137.379 295.392C125.617 294.771 132.425 274.975 139.854 279.917" stroke="black" stroke-width="6.56" stroke-linecap="round" stroke-linejoin="round"/>
<path d="M341.987 197.887C340.737 191.075 340.129 182.408 337.033 181.792C333.937 181.175 331.462 162.6 327.746 163.837C323.412 157.646 321.554 145.883 318.462 148.979C315.371 152.075 306.696 129.787 304.842 131.025C301.746 131.646 298.65 121.737 295.554 122.358C292.458 122.979 288.746 119.262 285.029 116.787C285.029 116.787 277.6 109.975 273.887 109.358C270.175 108.742 259.029 108.108 257.171 106.879C255.312 105.65 243.55 105.025 241.696 105.025C239.842 105.025 230.55 107.5 228.075 106.879C225.6 106.258 216.312 106.879 213.833 107.5C211.354 108.121 202.692 111.212 200.833 113.692C198.975 116.171 189.071 116.787 187.212 118.642C185.354 120.496 173.596 127.308 173.596 128.55C173.596 129.792 163.687 141.55 162.45 143.408C161.212 145.267 155.642 153.333 155.642 154.55C155.642 155.767 148.829 169.408 146.975 171.267C145.121 173.125 140.162 182.408 140.783 184.883C141.404 187.358 137.083 191.075 137.083 195.417C137.083 199.758 133.679 212.442 134.608 220.8C135.537 229.158 144.292 244.658 150.442 256.904C152.05 268.737 166.179 294.471 166.179 294.471C167.429 290.758 166.179 247.421 169.275 243.087C172.371 238.754 185.975 204.075 189.071 195.417C192.167 186.758 204.55 183.037 214.454 178.704C224.358 174.371 229.929 170.654 230.55 171.275C231.171 171.896 246.029 178.704 252.837 177.467C259.646 176.229 268.312 174.987 270.171 176.217C272.029 177.446 288.125 202.837 299.271 213.983C310.417 225.129 311.667 267.833 311.667 291.367C311.667 299.958 318.554 291.05 322.037 266.137C330.883 247.775 351.737 200.325 341.987 197.887Z" fill="black"/>
<path d="M167.083 287.962C162.746 273.104 137.983 223.212 134.887 200.046" stroke="#E5E4E5" stroke-width="2.46" stroke-linecap="round" stroke-linejoin="round"/>
<path d="M138.617 185.833C136.467 195.733 163.825 268.675 168.333 271.887" stroke="#E5E4E5" stroke-width="2.46" stroke-linecap="round" stroke-linejoin="round"/>
<path d="M142.329 175.287C140.833 185.237 163.021 251.667 168.333 257.008" stroke="#E5E4E5" stroke-width="2.46" stroke-linecap="round" stroke-linejoin="round"/>
<path d="M161.521 138.146C159.667 144.954 178.237 201.908 188.75 205" stroke="#E5E4E5" stroke-width="2.46" stroke-linecap="round" stroke-linejoin="round"/>
<path d="M189.379 195.721C183.808 188.908 163.337 140.404 166.462 133.192" stroke="#E5E4E5" stroke-width="2.46" stroke-linecap="round" stroke-linejoin="round"/>
<path d="M194.954 193.242C183.808 177.767 169.583 131.333 171.429 126.383" stroke="#E5E4E5" stroke-width="2.46" stroke-linecap="round" stroke-linejoin="round"/>
<path d="M226.525 100.379L229.621 172.812" stroke="#E5E4E5" stroke-width="2.46" stroke-linecap="round" stroke-linejoin="round"/>
<path d="M233.954 100.379V172.812" stroke="#E5E4E5" stroke-width="2.46" stroke-linecap="round" stroke-linejoin="round"/>
<path d="M248.196 100.379C250.671 104.096 246.946 179.004 246.946 179.004" stroke="#E5E4E5" stroke-width="2.59" stroke-linecap="round" stroke-linejoin="round"/>
<path d="M241.383 101C243.242 103.475 240.133 177.767 240.133 177.767" stroke="#E5E4E5" stroke-width="2.46" stroke-linecap="round" stroke-linejoin="round"/>
<path d="M258.717 102.858C263.054 115.237 253.75 179.004 253.75 179.004" stroke="#E5E4E5" stroke-width="2.46" stroke-linecap="round" stroke-linejoin="round"/>
<path d="M299.579 120.192L281.625 192.004" stroke="#E5E4E5" stroke-width="2.46" stroke-linecap="round" stroke-linejoin="round"/>
<path d="M310.104 133.192C310.721 143.096 294.271 202.017 290.912 204.387" stroke="#E5E4E5" stroke-width="2.46" stroke-linecap="round" stroke-linejoin="round"/>
<path d="M320.629 147.429C318.696 154.971 301.162 212.325 299.579 214.292" stroke="#E5E4E5" stroke-width="2.46" stroke-linecap="round" stroke-linejoin="round"/>
<path d="M333.008 167.862C333.258 180.975 309.412 249.283 308.246 247.721" stroke="#E5E4E5" stroke-width="2.46" stroke-linecap="round" stroke-linejoin="round"/>
<path d="M339.2 184.583C336.575 193.108 309.2 266.196 308.246 262.587" stroke="#E5E4E5" stroke-width="2.46" stroke-linecap="round" stroke-linejoin="round"/>
<path d="M342.379 194.942C342.379 194.942 311.054 275.146 310.712 271.867" stroke="#E5E4E5" stroke-width="2.46" stroke-linecap="round" stroke-linejoin="round"/>
<path d="M222.192 294.775C219.717 294.775 219.096 300.346 222.192 302.204C225.288 304.062 231.221 296.346 233.217 300.025C235.583 304.392 242.179 305.946 245.354 299.762C247.383 295.812 251.879 301.275 255.3 300.812C258.721 300.35 258.633 293.883 255.567 292.692" stroke="black" stroke-width="5.02" stroke-linecap="round" stroke-linejoin="round"/>
<path d="M220.463 330.371C221.8 350.787 256.454 350.787 257.479 330.371" stroke="black" stroke-width="6.56" stroke-linecap="round" stroke-linejoin="round"/>
<path d="M181.088 246.483C190.396 235.325 201.95 235.321 216.375 246.483" stroke="black" stroke-width="8.23" stroke-linecap="round" stroke-linejoin="round"/>
<path d="M261.567 246.483C275.081 236.747 286.843 236.747 296.854 246.483" stroke="black" stroke-width="8.23" stroke-linecap="round" stroke-linejoin="round"/>
<path d="M280.521 271.283C283.807 271.283 286.471 267.664 286.471 263.2C286.471 258.736 283.807 255.117 280.521 255.117C277.235 255.117 274.571 258.736 274.571 263.2C274.571 267.664 277.235 271.283 280.521 271.283Z" fill="black"/>
<path d="M285.471 258.675C287.471 258.725 291.637 256.121 291.637 255.079" stroke="black" stroke-width="3" stroke-linecap="round" stroke-linejoin="round"/>
<path d="M281.825 257.112C283.825 257.162 287.992 254.558 287.992 253.517" stroke="black" stroke-width="3" stroke-linecap="round" stroke-linejoin="round"/>
<path d="M201.521 271.283C204.807 271.283 207.471 267.664 207.471 263.2C207.471 258.736 204.807 255.117 201.521 255.117C198.235 255.117 195.571 258.736 195.571 263.2C195.571 267.664 198.235 271.283 201.521 271.283Z" fill="black"/>
<path d="M196.575 258.675C194.571 258.725 190.404 256.121 190.404 255.079" stroke="black" stroke-width="3" stroke-linecap="round" stroke-linejoin="round"/>
<path d="M200.221 257.112C198.217 257.162 194.05 254.558 194.05 253.517" stroke="black" stroke-width="3" stroke-linecap="round" stroke-linejoin="round"/>
</g>
<defs>
<clipPath id="clip0_427_216">
<rect width="500" height="500" fill="white"/>
</clipPath>
</defs>
</svg>
