<svg width="133" height="192" viewBox="0 0 133 192" fill="none" xmlns="http://www.w3.org/2000/svg">
<path d="M5.76 21.8H44.16C50.432 21.8 55.04 23.24 57.984 26.12C60.928 28.936 62.4 33.256 62.4 39.08C62.4 42.92 61.568 46.056 59.904 48.488C58.24 50.856 56.192 52.52 53.76 53.48C58.944 54.888 62.464 58.344 64.32 63.848C64.96 65.832 65.28 68.136 65.28 70.76C65.28 77.032 63.808 81.64 60.864 84.584C57.92 87.528 53.312 89 47.04 89H5.76V21.8ZM48 67.88C48 64.04 46.08 62.12 42.24 62.12H23.04V75.56H42.24C46.08 75.56 48 73.64 48 69.8V67.88ZM45.12 41C45.12 37.16 43.2 35.24 39.36 35.24H23.04V48.68H39.36C43.2 48.68 45.12 46.76 45.12 42.92V41ZM125.756 89H72.4762V21.8H125.756V35.24H89.7562V48.2H118.076V61.64H89.7562V75.56H125.756V89Z" fill="black"/>
<path d="M18.512 113.544H4.784V98.952H54.608V113.544H40.88V165H18.512V113.544ZM62.2063 98.952H83.8063V125.256H104.254V98.952H125.95V165H104.254V139.08H83.8063V165H62.2063V98.952Z" fill="black"/>
</svg>
